<svg width="146" height="30" viewBox="0 0 146 30" fill="none" xmlns="http://www.w3.org/2000/svg">
<g clip-path="url(#clip0)">
<path d="M26.7035 11.168C26.627 10.9427 26.4862 10.7448 26.2985 10.5987C26.1109 10.4525 25.8845 10.3645 25.6474 10.3455L18.7112 9.79438L15.7097 3.15016C15.6141 2.93617 15.4586 2.75441 15.262 2.62682C15.0654 2.49924 14.836 2.43128 14.6017 2.43115C14.3673 2.43102 14.1379 2.49873 13.9411 2.6261C13.7444 2.75347 13.5887 2.93505 13.4929 3.14895L10.4914 9.79438L3.55515 10.3455C3.32211 10.364 3.09931 10.4492 2.91343 10.591C2.72754 10.7327 2.58643 10.9251 2.50699 11.1449C2.42754 11.3648 2.41311 11.6029 2.46544 11.8307C2.51776 12.0586 2.63462 12.2665 2.80204 12.4297L7.92785 17.4265L6.11502 25.2765C6.05997 25.5141 6.07762 25.7628 6.16566 25.9902C6.2537 26.2177 6.40807 26.4134 6.60874 26.5521C6.80942 26.6907 7.04713 26.7658 7.29103 26.7677C7.53493 26.7695 7.77376 26.698 7.97652 26.5625L14.6013 22.146L21.226 26.5625C21.4333 26.7001 21.6777 26.7709 21.9264 26.7655C22.1751 26.76 22.4161 26.6785 22.6171 26.532C22.8182 26.3854 22.9695 26.1808 23.0507 25.9457C23.132 25.7106 23.1393 25.4562 23.0717 25.2168L20.8464 17.4302L26.3652 12.4637C26.7266 12.1377 26.8592 11.6291 26.7035 11.168Z" fill="#F3CD03"/>
<path d="M55.9041 11.168C55.8277 10.9427 55.6869 10.7448 55.4992 10.5987C55.3116 10.4525 55.0852 10.3645 54.8481 10.3455L47.9119 9.79438L44.9103 3.15016C44.8147 2.93617 44.6593 2.75441 44.4627 2.62682C44.2661 2.49924 44.0367 2.43128 43.8023 2.43115C43.568 2.43102 43.3386 2.49873 43.1418 2.6261C42.9451 2.75347 42.7894 2.93505 42.6936 3.14895L39.6921 9.79438L32.7558 10.3455C32.5228 10.364 32.3 10.4492 32.1141 10.591C31.9282 10.7327 31.7871 10.9251 31.7077 11.1449C31.6282 11.3648 31.6138 11.6029 31.6661 11.8307C31.7184 12.0586 31.8353 12.2665 32.0027 12.4297L37.1285 17.4265L35.3157 25.2765C35.2607 25.5141 35.2783 25.7628 35.3663 25.9902C35.4544 26.2177 35.6088 26.4134 35.8094 26.5521C36.0101 26.6907 36.2478 26.7658 36.4917 26.7677C36.7356 26.7695 36.9744 26.698 37.1772 26.5625L43.802 22.146L50.4267 26.5625C50.6339 26.7001 50.8784 26.7709 51.1271 26.7655C51.3758 26.76 51.6168 26.6785 51.8178 26.532C52.0188 26.3854 52.1702 26.1808 52.2514 25.9457C52.3327 25.7106 52.34 25.4562 52.2724 25.2168L50.0471 17.4302L55.5659 12.4637C55.9273 12.1377 56.0599 11.6291 55.9041 11.168Z" fill="#F3CD03"/>
<path d="M85.103 11.168C85.0265 10.9427 84.8857 10.7448 84.6981 10.5987C84.5104 10.4525 84.284 10.3645 84.0469 10.3455L77.1107 9.79438L74.1092 3.15016C74.0136 2.93617 73.8581 2.75441 73.6615 2.62682C73.4649 2.49924 73.2356 2.43128 73.0012 2.43115C72.7668 2.43102 72.5374 2.49873 72.3407 2.6261C72.1439 2.75347 71.9882 2.93505 71.8924 3.14895L68.8909 9.79438L61.9547 10.3455C61.7216 10.364 61.4988 10.4492 61.313 10.591C61.1271 10.7327 60.986 10.9251 60.9065 11.1449C60.8271 11.3648 60.8126 11.6029 60.865 11.8307C60.9173 12.0586 61.0342 12.2665 61.2016 12.4297L66.3274 17.4265L64.5146 25.2765C64.4595 25.5141 64.4772 25.7628 64.5652 25.9902C64.6532 26.2177 64.8076 26.4134 65.0083 26.5521C65.209 26.6907 65.4467 26.7658 65.6906 26.7677C65.9345 26.7695 66.1733 26.698 66.3761 26.5625L73.0008 22.146L79.6256 26.5625C79.8328 26.7001 80.0772 26.7709 80.3259 26.7655C80.5746 26.76 80.8157 26.6785 81.0167 26.532C81.2177 26.3854 81.369 26.1808 81.4503 25.9457C81.5315 25.7106 81.5389 25.4562 81.4712 25.2168L79.246 17.4302L84.7648 12.4637C85.1261 12.1377 85.2587 11.6291 85.103 11.168Z" fill="#F3CD03"/>
<path d="M114.304 11.168C114.227 10.9427 114.087 10.7448 113.899 10.5987C113.711 10.4525 113.485 10.3645 113.248 10.3455L106.312 9.79438L103.31 3.15016C103.214 2.93617 103.059 2.75441 102.862 2.62682C102.666 2.49924 102.436 2.43128 102.202 2.43115C101.968 2.43102 101.738 2.49873 101.541 2.6261C101.345 2.75347 101.189 2.93505 101.093 3.14895L98.0917 9.79438L91.1555 10.3455C90.9224 10.364 90.6997 10.4492 90.5138 10.591C90.3279 10.7327 90.1868 10.9251 90.1073 11.1449C90.0279 11.3648 90.0135 11.6029 90.0658 11.8307C90.1181 12.0586 90.235 12.2665 90.4024 12.4297L95.5282 17.4265L93.7154 25.2765C93.6603 25.5141 93.678 25.7628 93.766 25.9902C93.854 26.2177 94.0084 26.4134 94.2091 26.5521C94.4098 26.6907 94.6475 26.7658 94.8914 26.7677C95.1353 26.7695 95.3741 26.698 95.5769 26.5625L102.202 22.146L108.826 26.5625C109.034 26.7001 109.278 26.7709 109.527 26.7655C109.775 26.76 110.016 26.6785 110.217 26.532C110.418 26.3854 110.57 26.1808 110.651 25.9457C110.732 25.7106 110.74 25.4562 110.672 25.2168L108.447 17.4302L113.966 12.4637C114.327 12.1377 114.46 11.6291 114.304 11.168Z" fill="#F3CD03"/>
<path d="M143.704 11.168C143.627 10.9427 143.487 10.7448 143.299 10.5987C143.111 10.4525 142.885 10.3645 142.648 10.3455L135.712 9.79438L132.71 3.15016C132.614 2.93617 132.459 2.75441 132.262 2.62682C132.066 2.49924 131.836 2.43128 131.602 2.43115C131.368 2.43102 131.138 2.49873 130.942 2.6261C130.745 2.75347 130.589 2.93505 130.493 3.14895L127.492 9.79438L120.556 10.3455C120.322 10.364 120.1 10.4492 119.914 10.591C119.728 10.7327 119.587 10.9251 119.507 11.1449C119.428 11.3648 119.413 11.6029 119.466 11.8307C119.518 12.0586 119.635 12.2665 119.802 12.4297L124.928 17.4265L123.115 25.2765C123.06 25.5141 123.078 25.7628 123.166 25.9902C123.254 26.2177 123.408 26.4134 123.609 26.5521C123.81 26.6907 124.047 26.7658 124.291 26.7677C124.535 26.7695 124.774 26.698 124.977 26.5625L131.602 22.146L138.226 26.5625C138.434 26.7001 138.678 26.7709 138.927 26.7655C139.175 26.76 139.417 26.6785 139.618 26.532C139.819 26.3854 139.97 26.1808 140.051 25.9457C140.132 25.7106 140.14 25.4562 140.072 25.2168L137.847 17.4302L143.366 12.4637C143.727 12.1377 143.86 11.6291 143.704 11.168Z" fill="#F3CD03"/>
</g>
<defs>
<clipPath id="clip0">
<rect width="146" height="29.2" fill="white"/>
</clipPath>
</defs>
</svg>
