<svg width="1440" height="847" viewBox="0 0 1440 847" fill="none" xmlns="http://www.w3.org/2000/svg">
<g clip-path="url(#clip0)">
<rect width="1440" height="847" fill="white"/>
<g clip-path="url(#clip1)">
<path opacity="0.25" fill-rule="evenodd" clip-rule="evenodd" d="M156.184 382.051C126.381 412.211 82.8426 422.06 39.9979 394.975C-9.30558 363.807 -51.4149 309.015 -51.3271 250.868C-51.2267 184.384 -16.612 130.147 40.4033 126.499C100.125 122.678 167.139 166.41 198.172 234.905C225.254 294.681 192.029 345.776 156.184 382.051Z" fill="#8EC2F2"/>
<path opacity="0.35" fill-rule="evenodd" clip-rule="evenodd" d="M1197.71 293.094C1242.95 383.192 1251.49 497.158 1159.71 572.189C1065.26 649.408 927.37 646.175 824.54 598.165C728.26 553.215 680.429 459.847 708.562 361.556C737.454 260.612 832.281 173.073 950.963 156.462C1065.51 140.43 1154.5 207.039 1197.71 293.094Z" fill="#8EC2F2"/>
<path opacity="0.4" fill-rule="evenodd" clip-rule="evenodd" d="M1035.9 194.039C1139.03 215.436 1240.71 279.062 1250.06 394.093C1259.69 512.48 1175.43 614.037 1073.93 661.752C978.897 706.427 871.459 684.965 804.756 603.434C736.253 519.702 718.097 394.695 774.179 295.363C828.306 199.493 937.391 173.602 1035.9 194.039Z" fill="#23A6F0"/>
</g>
</g>
<defs>
<clipPath id="clip0">
<rect width="1440" height="847" fill="white"/>
</clipPath>
<clipPath id="clip1">
<rect width="1440" height="847" fill="white"/>
</clipPath>
</defs>
</svg>
