<svg width="367" height="381" viewBox="0 0 367 381" fill="none" xmlns="http://www.w3.org/2000/svg">
<path d="M57.5577 48.4502V52.9587" stroke="#5887FF" stroke-width="2" stroke-miterlimit="10" stroke-linecap="round" stroke-linejoin="round"/>
<path d="M57.5577 61.7849V57.2764" stroke="#5887FF" stroke-width="2" stroke-miterlimit="10" stroke-linecap="round" stroke-linejoin="round"/>
<path d="M64.0415 55.1182H59.6375" stroke="#5887FF" stroke-width="2" stroke-miterlimit="10" stroke-linecap="round" stroke-linejoin="round"/>
<path d="M51.1353 55.1182H55.5392" stroke="#5887FF" stroke-width="2" stroke-miterlimit="10" stroke-linecap="round" stroke-linejoin="round"/>
<path d="M178.668 64.3252V68.8337" stroke="#5887FF" stroke-width="2" stroke-miterlimit="10" stroke-linecap="round" stroke-linejoin="round"/>
<path d="M178.668 77.6599V73.1514" stroke="#5887FF" stroke-width="2" stroke-miterlimit="10" stroke-linecap="round" stroke-linejoin="round"/>
<path d="M185.09 70.9932H180.748" stroke="#5887FF" stroke-width="2" stroke-miterlimit="10" stroke-linecap="round" stroke-linejoin="round"/>
<path d="M172.245 70.9932H176.588" stroke="#5887FF" stroke-width="2" stroke-miterlimit="10" stroke-linecap="round" stroke-linejoin="round"/>
<path d="M36.3942 244.602V249.111" stroke="#5887FF" stroke-width="2" stroke-miterlimit="10" stroke-linecap="round" stroke-linejoin="round"/>
<path d="M36.3942 257.937V253.429" stroke="#5887FF" stroke-width="2" stroke-miterlimit="10" stroke-linecap="round" stroke-linejoin="round"/>
<path d="M42.8167 251.27H38.4739" stroke="#5887FF" stroke-width="2" stroke-miterlimit="10" stroke-linecap="round" stroke-linejoin="round"/>
<path d="M29.9717 251.27H34.3145" stroke="#5887FF" stroke-width="2" stroke-miterlimit="10" stroke-linecap="round" stroke-linejoin="round"/>
<path d="M45.141 96.7739C46.8976 96.7739 48.3217 95.2956 48.3217 93.4719C48.3217 91.6483 46.8976 90.1699 45.141 90.1699C43.3844 90.1699 41.9603 91.6483 41.9603 93.4719C41.9603 95.2956 43.3844 96.7739 45.141 96.7739Z" stroke="#5887FF" stroke-width="2" stroke-miterlimit="10" stroke-linecap="round" stroke-linejoin="round"/>
<path d="M150.898 247.84C152.655 247.84 154.079 246.362 154.079 244.538C154.079 242.715 152.655 241.236 150.898 241.236C149.142 241.236 147.718 242.715 147.718 244.538C147.718 246.362 149.142 247.84 150.898 247.84Z" stroke="#5887FF" stroke-width="2" stroke-miterlimit="10" stroke-linecap="round" stroke-linejoin="round"/>
<path d="M330.728 23.876L337.028 27.051L294.701 343.027H288.829L330.728 23.876Z" fill="#ECBDBB"/>
<path d="M248.948 34.7989L229.314 343.091H288.829L330.667 23.9404L248.948 34.7989ZM287.973 54.8014C287.483 54.9284 287.055 55.0554 286.566 55.0554C282.345 55.4999 279.042 52.1979 279.287 47.6894C279.532 43.1809 283.141 39.2439 287.361 38.7994C288.34 38.6724 289.318 38.7994 290.175 39.0534C292.927 39.9424 294.823 42.6729 294.64 46.1019C294.456 50.1659 291.582 53.7219 287.973 54.8014Z" fill="#FFFCF6"/>
<path d="M287.973 54.8009C287.483 54.9279 287.055 55.0549 286.566 55.0549C282.345 55.4994 279.042 52.1974 279.287 47.6889C279.532 43.1803 283.141 39.2433 287.361 38.7988C288.34 38.6718 289.318 38.7988 290.175 39.0528C286.566 40.1323 283.691 43.6883 283.508 47.6254C283.324 51.1814 285.22 53.9119 287.973 54.8009Z" fill="#ECBDBB"/>
<path d="M266.626 45.5926C266.503 44.5131 265.586 43.7511 264.546 43.8781L248.214 45.8466L247.97 49.7836L264.974 47.7516C266.014 47.6246 266.748 46.6086 266.626 45.5926Z" fill="#ECBDBB"/>
<path d="M264.24 81.0887C264.118 80.0092 263.2 79.2472 262.16 79.3742L246.012 81.1522L245.768 85.0892L262.589 83.2477C263.628 83.1207 264.362 82.1682 264.24 81.0887Z" fill="#ECBDBB"/>
<path d="M261.855 116.585C261.732 115.506 260.815 114.744 259.775 114.807L243.749 116.395L243.505 120.332L260.142 118.681C261.182 118.617 261.916 117.665 261.855 116.585Z" fill="#ECBDBB"/>
<path d="M259.469 152.146C259.408 151.066 258.49 150.304 257.451 150.368L241.547 151.765L241.302 155.702L257.818 154.241C258.796 154.114 259.53 153.225 259.469 152.146Z" fill="#ECBDBB"/>
<path d="M257.083 187.642C257.022 186.563 256.105 185.737 255.065 185.864L239.284 187.071L239.039 191.008L255.371 189.801C256.349 189.674 257.145 188.722 257.083 187.642Z" fill="#ECBDBB"/>
<path d="M254.637 223.139C254.576 222.059 253.658 221.234 252.618 221.297L236.96 222.313L236.715 226.25L252.863 225.234C253.964 225.171 254.759 224.218 254.637 223.139Z" fill="#ECBDBB"/>
<path d="M252.251 258.698C252.19 257.619 251.334 256.793 250.294 256.857L234.758 257.682L234.513 261.619L250.478 260.794C251.517 260.667 252.313 259.778 252.251 258.698Z" fill="#ECBDBB"/>
<path d="M249.866 294.195C249.805 293.116 248.948 292.29 247.909 292.29L232.495 292.925L232.25 296.862L248.092 296.227C249.132 296.164 249.927 295.275 249.866 294.195Z" fill="#ECBDBB"/>
<path d="M247.48 329.692C247.48 328.612 246.563 327.787 245.523 327.787L230.231 328.231L229.987 332.168L245.645 331.724C246.685 331.724 247.542 330.771 247.48 329.692Z" fill="#ECBDBB"/>
<path d="M208.028 211.773C208.028 211.773 200.749 194.437 180.136 190.945C159.523 187.452 149.308 202.121 149.308 202.121C149.308 202.121 159.767 203.645 172.123 213.614C184.479 223.52 197.568 225.489 208.028 211.773Z" fill="#5887FF"/>
<path d="M232.862 139.764C232.862 139.764 220.078 118.618 194.51 131.191C194.51 131.191 202.768 136.017 213.411 143.891C223.992 151.702 232.862 139.764 232.862 139.764Z" fill="#5887FF"/>
<path d="M213.533 96.0123C213.533 96.0123 213.716 101.029 209.373 100.457C205.703 99.9493 205.214 86.8683 215.674 85.9793C226.378 85.0903 236.654 102.87 231.088 138.43C225.583 174.054 202.645 194.056 204.174 239.205C205.703 284.353 218.426 301.562 210.597 341.186H225.583C225.583 341.186 228.274 309.436 218.365 273.241C206.499 229.87 214.878 207.582 228.152 172.085C243.443 131.191 241.302 94.4248 224.42 85.7888C208.701 77.7243 200.321 94.1073 202.462 102.362C204.664 110.681 215.918 110.744 217.57 104.331C219.282 97.9173 213.533 96.0123 213.533 96.0123Z" fill="#134087"/>
<path d="M212.677 214.947C212.677 214.947 217.325 190.055 240.874 177.8C264.424 165.544 286.688 181.737 286.688 181.737C286.688 181.737 276.963 209.677 251.946 211.137C230.904 212.407 219.344 211.772 212.677 214.947Z" fill="#5887FF"/>
<path d="M236.348 138.875C236.348 138.875 242.893 103.124 282.162 109.728C282.162 109.728 277.941 117.094 274.149 125.603C271.03 132.588 254.27 150.178 236.348 138.875Z" fill="#5887FF"/>
<path d="M203.93 343.663C203.93 343.663 201.3 331.471 192.736 324.041C192.736 324.041 203.624 326.073 208.273 341.186C208.273 341.186 207.906 335.725 207.783 334.455C207.661 333.185 211.025 337.313 212.126 340.869C212.126 340.869 212.554 328.359 206.438 321.057C206.438 321.057 217.937 323.406 221.607 340.297C221.607 340.297 222.524 331.28 228.396 326.454C228.396 326.454 226.623 333.693 226.561 339.662C226.561 339.662 231.822 324.041 244.911 315.913C244.911 315.913 237.694 327.978 235.981 339.408C235.981 339.408 237.021 337.44 241.241 335.344C241.241 335.344 238.917 338.392 237.327 343.726H203.93V343.663Z" fill="#5887FF"/>
<path d="M119.703 357.124H212.982" stroke="#5887FF" stroke-width="2" stroke-miterlimit="10" stroke-linecap="round" stroke-linejoin="round"/>
<path d="M103.31 357.124H113.097" stroke="#5887FF" stroke-width="2" stroke-miterlimit="10" stroke-linecap="round" stroke-linejoin="round"/>
<path d="M222.524 357.124H232.25" stroke="#5887FF" stroke-width="2" stroke-miterlimit="10" stroke-linecap="round" stroke-linejoin="round"/>
<path d="M196.59 343.662H303.387" stroke="#5887FF" stroke-width="2" stroke-miterlimit="10" stroke-linecap="round" stroke-linejoin="round"/>
<path d="M164.783 343.662H183.745" stroke="#5887FF" stroke-width="2" stroke-miterlimit="10" stroke-linecap="round" stroke-linejoin="round"/>
<path d="M79.3331 343.662H143.008" stroke="#5887FF" stroke-width="2" stroke-miterlimit="10" stroke-linecap="round" stroke-linejoin="round"/>
<path d="M164.477 119.952C164.477 119.952 160.196 117.031 158.177 116.586C156.159 116.142 151.265 126.048 151.265 126.048L148.513 123.317C148.513 123.317 154.079 112.586 157.688 112.586C161.297 112.586 166.068 116.269 166.068 116.269L164.477 119.952Z" fill="#134087"/>
<path d="M122.456 111.316C127.961 115.761 135.362 140.018 135.362 140.018C135.362 140.018 139.215 137.668 144.415 140.462C149.553 143.256 153.712 149.67 147.718 165.608C141.723 181.547 132.12 184.087 123.19 178.435C114.198 172.72 108.51 149.352 108.02 133.414C107.164 107.442 122.456 111.316 122.456 111.316Z" fill="#FFFCF6"/>
<path d="M135.362 140.018C135.362 140.018 132.12 142.494 129 151.638" stroke="#ECBDBB" stroke-miterlimit="10" stroke-linecap="round" stroke-linejoin="round"/>
<path d="M139.277 133.858C139.032 133.794 135.729 141.287 135.729 141.287C135.729 141.287 137.38 144.335 143.375 146.558C148.146 148.336 149.553 147.891 149.553 147.891L152.122 140.398C152.06 140.335 149.186 135.572 139.277 133.858Z" fill="#5887FF"/>
<path d="M140.072 135.382L143.008 125.158C143.008 125.158 146.066 113.919 146.922 112.585C147.779 111.252 154.262 110.553 155.791 111.188C157.321 111.823 155.975 114.617 152.488 115.951C152.488 115.951 157.504 116.776 159.217 118.618C160.929 120.459 159.4 122.364 158.36 123.253C158.36 123.253 159.584 125.603 156.831 127.381C156.831 127.381 157.871 129.73 155.302 131.445C155.302 131.445 155.791 134.366 151.754 134.175L150.042 139.89C149.981 139.827 143.986 139.509 140.072 135.382Z" fill="#ECBDBB"/>
<path d="M151.632 116.967C151.632 116.967 148.941 117.665 150.286 120.396C150.286 120.396 147.84 122.174 149.491 124.46C149.491 124.46 146.861 126.555 149.308 128.714C149.308 128.714 146.739 130.238 149.002 132.524" stroke="#134087" stroke-miterlimit="10" stroke-linecap="round" stroke-linejoin="round"/>
<path d="M184.295 132.271L169.615 164.592C169.615 164.592 165.272 170.053 152.489 166.243C139.705 162.497 140.5 145.542 140.5 145.542L166.251 109.22C166.251 109.22 172.674 104.458 180.442 112.713C188.088 120.777 184.417 131.89 184.295 132.271Z" fill="#5887FF"/>
<path d="M146.188 162.497C140.011 156.21 140.5 145.542 140.5 145.542L163.437 113.157" stroke="#134087" stroke-miterlimit="10" stroke-linecap="round" stroke-linejoin="round"/>
<path d="M165.272 149.416C165.272 149.416 160.501 151.258 159.584 156.338C158.728 161.418 163.193 163.005 163.193 163.005L182.95 157.925L191.329 163.005L185.09 146.686L181.604 151.131L165.272 149.416Z" fill="#134087"/>
<path d="M181.543 151.893C181.543 151.893 180.809 154.242 182.46 156.592" stroke="#5887FF" stroke-miterlimit="10" stroke-linecap="round" stroke-linejoin="round"/>
<path d="M185.09 146.686C185.09 146.686 183.867 149.607 184.54 153.734C185.274 157.862 191.268 162.942 191.268 162.942C191.268 162.942 193.042 159.386 192.492 154.179C191.941 149.035 185.09 146.686 185.09 146.686Z" fill="#5887FF"/>
<path d="M186.822 150.586C187.015 150.524 187.084 150.175 186.975 149.806C186.865 149.437 186.62 149.188 186.426 149.25C186.232 149.312 186.164 149.661 186.273 150.03C186.382 150.399 186.628 150.647 186.822 150.586Z" fill="#134087"/>
<path d="M190.464 159.326C190.647 159.234 190.663 158.878 190.5 158.531C190.338 158.184 190.058 157.978 189.876 158.07C189.694 158.162 189.678 158.518 189.84 158.865C190.003 159.212 190.282 159.418 190.464 159.326Z" fill="#134087"/>
<path d="M186.735 155.201C186.917 155.109 186.933 154.753 186.771 154.406C186.609 154.059 186.329 153.853 186.147 153.945C185.964 154.037 185.948 154.393 186.111 154.74C186.273 155.087 186.553 155.293 186.735 155.201Z" fill="#134087"/>
<path d="M191.03 153.605C191.212 153.513 191.228 153.157 191.066 152.81C190.904 152.463 190.624 152.256 190.442 152.348C190.259 152.44 190.243 152.796 190.406 153.143C190.568 153.49 190.848 153.697 191.03 153.605Z" fill="#134087"/>
<path d="M188.936 154.547C189.118 154.455 189.134 154.099 188.972 153.752C188.809 153.405 188.53 153.198 188.347 153.29C188.165 153.382 188.149 153.738 188.311 154.085C188.474 154.432 188.753 154.639 188.936 154.547Z" fill="#134087"/>
<path d="M184.295 132.271C183.622 132.461 175.61 134.112 169.004 125.349C168.575 124.778 168.147 124.206 167.841 123.635C162.887 115.697 165.945 109.728 166.251 109.22C166.251 109.22 172.674 104.458 180.442 112.713C181.176 113.475 181.787 114.237 182.338 115.062C187.476 122.746 184.418 131.953 184.295 132.271Z" fill="#134087"/>
<path d="M184.295 132.27C183.622 132.461 175.61 134.112 169.004 125.349C168.575 124.777 168.147 124.206 167.841 123.634C167.841 123.634 172.551 115.316 182.338 114.998C183.378 114.935 184.54 114.998 185.702 115.189C185.702 115.189 188.393 123.317 184.295 132.27Z" fill="#5887FF"/>
<path d="M183.378 132.398C180.992 132.652 174.508 132.652 169.065 125.349C168.636 124.778 168.208 124.206 167.902 123.635" stroke="#134087" stroke-miterlimit="10" stroke-linecap="round" stroke-linejoin="round"/>
<path d="M190.718 147.955C190.718 147.955 215.368 146.241 224.543 172.149" stroke="#134087" stroke-width="2" stroke-miterlimit="10" stroke-linecap="round" stroke-linejoin="round" stroke-dasharray="9 9"/>
<path d="M193.042 162.496C193.042 162.496 207.11 175.323 209.924 202.882" stroke="#134087" stroke-width="2" stroke-miterlimit="10" stroke-linecap="round" stroke-linejoin="round" stroke-dasharray="9 9"/>
<path d="M194.51 155.639C194.51 155.639 214.083 161.735 218.61 184.595" stroke="#134087" stroke-width="2" stroke-miterlimit="10" stroke-linecap="round" stroke-linejoin="round" stroke-dasharray="9 9"/>
<path d="M96.8269 307.149C96.8269 307.149 103.127 310.705 103.249 310.515C103.311 310.388 106.614 305.244 108.387 302.514C109.06 301.498 109.488 300.799 109.488 300.799L101.72 296.672L99.0901 302.26L96.8269 307.149Z" fill="#ECBDBB"/>
<path d="M101.659 296.672L99.0901 302.26C103.494 303.339 106.675 302.895 108.387 302.514C109.06 301.498 109.488 300.799 109.488 300.799L101.659 296.672Z" fill="#134087"/>
<path d="M107.531 305.562C107.531 305.562 117.012 315.976 118.48 316.166C119.887 316.42 126.432 317.817 126.432 317.817L129.001 328.739C129.001 328.739 104.289 329.184 91.5055 326.39C91.6278 319.087 93.4628 310.642 96.8882 305.054C100.008 306.133 103.616 306.324 107.531 305.562Z" fill="#134087"/>
<path d="M115.116 319.849C115.238 319.849 115.36 319.786 115.483 319.659C115.605 319.468 115.544 319.214 115.36 319.087C107.103 314.134 103.066 307.149 103.005 307.086C102.882 306.895 102.638 306.832 102.454 306.959C102.271 307.086 102.21 307.34 102.332 307.53C102.393 307.594 106.552 314.833 114.993 319.849C114.993 319.786 115.055 319.849 115.116 319.849Z" fill="#134087"/>
<path d="M120.682 315.658C120.682 315.658 135.423 315.404 131.753 334.137C131.753 334.137 106.675 334.2 90.4656 331.025L90.7102 325.31C90.7102 325.31 104.228 327.342 113.464 327.215C113.403 327.215 115.36 318.516 120.682 315.658Z" fill="#FFFCF6"/>
<path d="M99.1513 322.389C101.448 322.389 103.311 320.058 103.311 317.182C103.311 314.306 101.448 311.975 99.1513 311.975C96.8541 311.975 94.9919 314.306 94.9919 317.182C94.9919 320.058 96.8541 322.389 99.1513 322.389Z" fill="#EEEEEE"/>
<path d="M118.48 291.401C118.48 291.401 115.177 298.64 110.773 303.212C110.773 303.212 105.941 302.006 102.087 299.656C98.2337 297.307 96.9492 294.894 96.9492 294.894L101.72 283.591C108.204 284.035 113.831 286.512 118.48 291.401Z" fill="#134087"/>
<path d="M134.077 259.778C124.535 276.542 114.993 292.608 114.993 292.608C114.993 292.608 106.614 291.465 102.76 286.575C102.76 286.575 106.491 268.922 111.446 254.127C106.736 250.19 104.412 248.348 99.6406 244.411C96.1541 241.554 92.9122 238.95 90.3432 236.855C86.6732 233.934 84.3489 232.029 84.3489 232.029L67.1611 210.947C51.8694 191.96 74.2564 166.878 86.6732 179.514C86.6732 179.514 117.257 216.281 130.102 233.997C131.019 235.267 132.059 236.728 133.099 238.188C137.564 244.475 137.931 252.984 134.077 259.778Z" fill="#5887FF"/>
<path d="M88.1412 224.663L118.48 253.175L107.042 285.941" stroke="#134087" stroke-miterlimit="10" stroke-linecap="round" stroke-linejoin="round"/>
<path d="M127.165 237.998C134.322 237.363 138.481 257.683 127.9 260.223C117.318 262.763 117.746 238.823 127.165 237.998Z" fill="#134087"/>
<path d="M47.7711 318.136L54.9276 321.184L59.454 314.008L61.289 311.151L52.114 307.468L49.7896 313.119L47.7711 318.136Z" fill="#ECBDBB"/>
<path d="M49.7896 313.119C53.1537 314.071 56.4567 314.262 59.4539 313.944L61.2277 311.087L52.0527 307.404L49.7896 313.119Z" fill="#134087"/>
<path d="M58.5977 316.802C58.5977 316.802 52.6034 313.817 47.2207 316.103C47.2207 316.103 44.2235 321.691 43.1837 331.407C43.1837 331.407 46.9149 343.726 55.1112 344.678C63.3075 345.631 69.8524 343.535 69.8524 343.535C69.8524 343.535 64.4085 330.264 63.491 327.724C62.6347 325.247 58.5977 316.802 58.5977 316.802Z" fill="#134087"/>
<path d="M55.4783 334.074C57.3744 334.074 61.1668 333.82 62.3289 332.042C62.7571 331.343 62.8183 330.518 62.3901 329.502C60.4328 325.12 58.2308 318.326 58.1696 318.262C58.1084 318.072 57.8638 317.945 57.6803 318.008C57.4968 318.072 57.3744 318.326 57.4356 318.516C57.4356 318.58 59.6988 325.438 61.6561 329.819C61.9619 330.518 61.9619 331.089 61.6561 331.534C60.6774 333.058 56.5181 333.248 54.7443 333.185C54.1938 331.915 51.4413 325.247 50.4626 318.453C50.4014 318.199 50.2179 318.072 50.0344 318.135C49.7898 318.199 49.6674 318.389 49.7286 318.58C50.8908 326.2 54.1326 333.693 54.1938 333.756C54.2549 333.883 54.3773 334.01 54.5608 334.01C54.6219 334.074 54.9889 334.074 55.4783 334.074Z" fill="#134087"/>
<path d="M48.3676 325.612C48.8651 323.176 48.545 321.042 47.6527 320.846C46.7604 320.649 45.6337 322.465 45.1363 324.901C44.6389 327.337 44.959 329.471 45.8513 329.667C46.7436 329.863 47.8702 328.048 48.3676 325.612Z" fill="#EEEEEE"/>
<path d="M65.2037 327.851C65.2037 327.851 76.9477 335.344 71.4427 350.393C71.4427 350.393 57.0686 352.616 51.5024 349.949C45.9362 347.282 42.2662 335.979 42.2662 335.979C42.2662 335.979 42.4497 332.677 43.1226 330.581C43.1226 330.581 46.3032 336.804 50.5237 340.614C50.5849 340.678 51.3801 325.755 65.2037 327.851Z" fill="#FFFCF6"/>
<path d="M70.8922 302.641C70.8922 302.641 63.9192 295.402 53.2762 295.593L48.811 307.658C48.811 307.658 54.4995 312.611 62.1454 313.182L70.8922 302.641Z" fill="#134087"/>
<path d="M88.8752 276.86C80.006 288.544 71.565 299.276 68.3843 303.403C66.5494 303.276 59.6987 302.387 54.0102 297.625C56.5792 291.783 62.5735 273.558 67.2833 262.446C57.6802 244.348 37.801 211.646 37.801 211.646C29.5435 177.991 59.5152 162.433 70.6475 178.562C70.6475 178.562 82.1469 202.946 88.5694 226.378C90.3432 232.855 92.3617 242.316 94.4413 252.73C96.0928 261.176 94.0744 270.002 88.8752 276.86Z" fill="#5887FF"/>
<path d="M46.7314 191.199L45.2634 202.566C44.7129 206.63 45.6915 210.821 47.9547 214.186C54.1937 223.711 67.4057 244.603 74.134 261.113L59.3317 297.752" stroke="#134087" stroke-miterlimit="10" stroke-linecap="round" stroke-linejoin="round"/>
<path d="M70.7086 178.499C70.7086 178.499 82.2079 202.883 88.6304 226.315C89.4256 229.172 90.2819 232.728 91.1383 236.602" stroke="#134087" stroke-miterlimit="10" stroke-linecap="round" stroke-linejoin="round"/>
<path d="M86.979 202.819L90.5878 215.075C91.0772 216.662 90.7713 218.377 89.7927 219.71L87.5907 222.758" stroke="#134087" stroke-miterlimit="10" stroke-linecap="round" stroke-linejoin="round"/>
<path d="M87.5295 251.27C94.8083 252.032 95.3588 273.05 84.3488 273.558C73.3388 274.066 77.9263 250.317 87.5295 251.27Z" fill="#134087"/>
<path d="M103.372 98.7431C103.372 98.7431 112.73 103.125 122.456 111.316C110.467 140.653 105.635 171.387 109.182 202.375C109.182 202.375 97.8666 212.408 70.6474 208.916C44.7739 205.614 34.4368 189.294 34.4368 189.294C34.4368 189.294 41.1651 118.428 71.7484 100.394C71.7484 100.458 89.7926 93.6631 103.372 98.7431Z" fill="#FFFCF6"/>
<path d="M121.477 113.793C116.767 125.731 113.219 137.986 110.956 150.305" stroke="#ECBDBB" stroke-miterlimit="10" stroke-linecap="round" stroke-linejoin="round"/>
<path d="M96.3986 104.839L91.6276 121.666C91.3829 122.619 91.8723 123.635 92.7898 123.952L94.5636 124.587C95.5423 124.968 96.6433 124.333 96.8879 123.317L101.17 106.363L96.3986 104.839Z" stroke="#ECBDBB" stroke-miterlimit="10" stroke-linecap="round" stroke-linejoin="round"/>
<path d="M39.2689 186.373C39.2689 186.373 68.6289 214.377 105.696 197.93" stroke="#ECBDBB" stroke-miterlimit="10" stroke-linecap="round" stroke-linejoin="round"/>
<path d="M103.555 93.9167C105.818 94.6152 108.265 96.6472 109.488 97.7902C109.978 98.2347 110.161 98.9967 109.916 99.6317L107.103 106.68C107.103 106.68 102.943 109.347 98.2336 107.315C93.5238 105.283 92.3004 101.219 92.3004 101.219L93.9519 93.9802C94.0743 93.3452 94.6248 92.8373 95.2976 92.7738C96.7044 92.5833 99.3958 92.6467 103.555 93.9167Z" fill="#5887FF"/>
<path d="M102.821 86.6777L101.475 89.6622L98.2948 96.7742C98.4171 96.9012 98.5395 96.9647 98.723 97.0917C101.108 98.8062 103.616 99.4412 105.512 99.5682L106.369 95.3772L107.531 89.5352L102.821 86.6777Z" fill="#ECBDBB"/>
<path d="M102.821 86.6777L101.475 89.6622C102.148 91.3767 103.555 93.4087 106.308 95.3772L107.47 89.5352L102.821 86.6777Z" fill="#134087"/>
<path d="M100.313 98.4888C102.271 99.4413 104.106 99.8223 105.513 99.9493C105.757 99.9493 106.002 99.9493 106.185 100.013C107.653 100.076 108.693 99.8858 108.693 99.8858C108.938 99.8223 109.06 99.6318 108.999 99.3778C108.938 99.1873 108.754 98.9968 108.51 99.0603C108.51 99.0603 107.592 99.2508 106.185 99.1873C106.002 99.1873 105.757 99.1873 105.513 99.1238C103.8 98.9968 101.292 98.4888 98.9065 96.7108C98.7842 96.5838 98.6618 96.5203 98.5395 96.3933C97.5608 95.6313 96.6433 94.6788 95.8482 93.5993C95.7258 93.4088 95.4812 93.4088 95.2977 93.5358C95.1142 93.6628 95.1142 93.9168 95.2365 94.1073C96.0928 95.2503 97.0103 96.2663 98.0502 97.0918C98.1725 97.2188 98.2948 97.2823 98.4783 97.4093C99.09 97.8538 99.7017 98.1713 100.313 98.4888Z" fill="#134087"/>
<path d="M116.155 68.5803C123.19 72.9618 116.951 91.5673 114.626 93.7898C112.302 96.0123 102.515 89.4083 101.231 87.6938C99.9462 85.9793 100.803 78.8038 102.087 74.4858C103.372 70.1678 107.959 63.5003 116.155 68.5803Z" fill="#ECBDBB"/>
<path d="M112.118 86.6134H112.18C112.241 86.6134 113.953 87.0579 114.871 85.7244C114.993 85.5974 114.993 85.4069 114.871 85.2164C114.015 83.9464 113.77 81.3429 113.77 81.3429C113.77 81.0889 113.586 80.9619 113.342 80.9619C113.097 80.9619 112.975 81.1524 112.975 81.4064C112.975 81.5334 113.219 83.9464 114.076 85.4704C113.403 86.1054 112.363 85.8514 112.363 85.8514C112.18 85.7879 111.935 85.9149 111.874 86.1689C111.874 86.3594 111.935 86.5499 112.118 86.6134Z" fill="#134087"/>
<path d="M108.877 88.6459C110.956 89.6619 112.608 89.4714 112.73 89.4714C112.975 89.4714 113.097 89.2174 113.097 89.0269C113.097 88.7729 112.852 88.6459 112.669 88.6459C112.669 88.6459 110.406 88.9634 108.081 87.1854C107.898 87.0584 107.653 87.1219 107.531 87.2489C107.409 87.4394 107.47 87.6934 107.592 87.8204C108.02 88.1379 108.448 88.3919 108.877 88.6459Z" fill="#134087"/>
<path d="M111.446 78.041C111.446 78.041 111.629 76.39 111.323 76.009C111.018 75.628 110.834 76.39 110.834 76.39C110.834 76.39 107.837 75.12 106.919 78.295C106.797 78.295 108.51 76.8345 111.446 78.041Z" fill="#134087"/>
<path d="M115.054 78.7392C115.054 78.7392 115.299 77.0883 115.605 76.7708C115.911 76.4533 115.911 77.2153 115.911 77.2153C115.911 77.2153 118.357 76.3898 118.419 79.6283C118.419 79.6283 117.501 77.9138 115.054 78.7392Z" fill="#134087"/>
<path d="M111.005 81.4046C111.15 80.5408 110.728 79.7431 110.062 79.6229C109.396 79.5026 108.739 80.1054 108.595 80.9692C108.45 81.833 108.872 82.6307 109.538 82.7509C110.203 82.8711 110.86 82.2683 111.005 81.4046Z" fill="#134087"/>
<path d="M110.406 81.3431C110.642 81.3431 110.834 81.1441 110.834 80.8986C110.834 80.6531 110.642 80.4541 110.406 80.4541C110.169 80.4541 109.978 80.6531 109.978 80.8986C109.978 81.1441 110.169 81.3431 110.406 81.3431Z" fill="#FFFCF6"/>
<path d="M117.385 82.2551C117.53 81.3914 117.108 80.5937 116.442 80.4735C115.776 80.3532 115.119 80.956 114.975 81.8198C114.83 82.6836 115.252 83.4812 115.918 83.6015C116.583 83.7217 117.24 83.1189 117.385 82.2551Z" fill="#134087"/>
<path d="M116.767 82.2327C117.004 82.2327 117.195 82.0337 117.195 81.7882C117.195 81.5428 117.004 81.3438 116.767 81.3438C116.531 81.3438 116.339 81.5428 116.339 81.7882C116.339 82.0337 116.531 82.2327 116.767 82.2327Z" fill="#FFFCF6"/>
<path d="M102.271 80.264L103.372 77.724C103.372 77.724 106.858 76.581 107.409 73.406C107.409 73.406 115.238 82.4865 124.413 80.264C124.413 80.264 123.924 77.7875 122.761 76.3905C122.761 76.3905 131.08 73.8505 133.466 65.532C134.383 62.484 125.636 62.611 121.844 65.0875C121.844 65.0875 127.227 58.42 125.453 52.578C124.902 50.8635 117.562 54.737 113.648 59.817C113.648 59.817 114.871 54.864 113.77 52.324C113.403 51.435 109.06 54.6735 105.941 61.214C105.941 61.214 99.7017 61.849 95.6035 66.1035C91.5053 70.358 91.1995 78.6765 100.803 84.074L102.271 80.264Z" fill="#134087"/>
<path d="M102.271 80.2638C102.271 80.2638 102.087 73.1518 97.8055 73.4693C93.585 73.7233 94.686 82.6768 101.231 84.8358L102.271 80.2638Z" fill="#ECBDBB"/>
<path d="M99.8852 82.6769C99.9463 82.6769 99.9463 82.7404 99.8852 82.6769C100.13 82.7404 100.374 82.6769 100.436 82.4229C100.436 82.3594 101.965 77.2794 98.1725 75.3109C97.989 75.1839 97.7443 75.3109 97.622 75.5014C97.4997 75.6919 97.622 75.9459 97.8055 76.0729C100.986 77.7239 99.7017 82.1689 99.7017 82.1689C99.6405 82.4229 99.7017 82.6134 99.8852 82.6769Z" fill="#134087"/>
<path d="M97.6831 80.7088C97.8666 80.7723 98.0501 80.7723 98.1725 80.5818C98.1725 80.5818 99.1512 79.1213 100.252 78.4863C100.436 78.3593 100.497 78.1053 100.374 77.9148C100.252 77.7243 100.007 77.6608 99.824 77.7878C98.6007 78.4863 97.5608 80.0738 97.4996 80.1373C97.3773 80.2643 97.4385 80.5183 97.6831 80.7088C97.6831 80.7088 97.622 80.6453 97.6831 80.7088Z" fill="#134087"/>
<path d="M72.4825 219.773C72.4825 219.773 74.7457 228.028 75.1127 231.14C75.4797 234.315 75.4797 241.109 76.8865 241.49C78.2934 241.871 79.5167 240.792 79.5167 240.792C79.5167 240.792 80.9235 241.935 81.9022 241.617C82.942 241.3 83.5537 240.728 83.5537 240.728C83.5537 240.728 85.3887 241.427 86.3062 241.236C87.2237 241.046 88.1412 239.966 88.1412 239.966C88.1412 239.966 89.915 241.046 91.383 239.585C92.9122 238.125 92.2394 228.663 90.7714 226.568C89.3645 224.472 83.0032 218.059 83.0032 218.059L72.4825 219.773Z" fill="#ECBDBB"/>
<path d="M78.905 231.901C78.905 231.901 79.272 236.664 79.3944 239.585" stroke="#134087" stroke-miterlimit="10" stroke-linecap="round" stroke-linejoin="round"/>
<path d="M82.9421 231.521C82.9421 231.521 83.5538 237.109 83.4926 239.585" stroke="#134087" stroke-miterlimit="10" stroke-linecap="round" stroke-linejoin="round"/>
<path d="M86.979 230.759C86.979 230.759 87.8965 235.966 87.9577 238.506" stroke="#134087" stroke-miterlimit="10" stroke-linecap="round" stroke-linejoin="round"/>
<path d="M70.0359 212.344L71.5651 220.853C71.5651 220.853 74.1952 224.155 79.3944 222.758C84.6547 221.424 85.3276 217.741 85.3276 217.741V209.74L70.0359 212.344Z" fill="#5887FF"/>
<path d="M70.0359 212.344L71.5651 220.853C71.5651 220.853 74.1952 224.155 79.3944 222.758C84.6547 221.424 85.3276 217.741 85.3276 217.741V209.74L70.0359 212.344Z" stroke="#134087" stroke-miterlimit="10" stroke-linecap="round" stroke-linejoin="round"/>
<path d="M70.7087 101.155C53.4597 102.933 53.8267 127.571 55.6617 146.812C57.4967 166.052 66.4882 211.264 66.4882 211.264C66.4882 211.264 70.5252 218.122 77.8652 216.789C85.2052 215.392 86.9179 209.042 86.9179 209.042C86.9179 209.042 85.4499 146.939 85.3275 130.492C85.2052 114.046 81.2294 100.012 70.7087 101.155Z" fill="#FFFCF6"/>
<path d="M54.8054 130.429C54.7442 135.89 55.1724 141.541 55.6617 146.812C57.4967 166.052 66.4882 211.264 66.4882 211.264C66.4882 211.264 70.5252 218.122 77.8652 216.789C85.2052 215.392 86.9179 209.042 86.9179 209.042C86.9179 209.042 85.4499 146.939 85.3276 130.492C85.2052 115.951 82.0857 103.378 74.0729 101.409" stroke="#ECBDBB" stroke-miterlimit="10" stroke-linecap="round" stroke-linejoin="round"/>
</svg>
