<svg width="200" height="153" viewBox="0 0 200 153" fill="none" xmlns="http://www.w3.org/2000/svg">
<path d="M200 134.436H0V134.536H200V134.436Z" fill="#E0E0E0"/>
<path d="M162.68 137.476H149.896V137.576H162.68V137.476Z" fill="#E0E0E0"/>
<path d="M178.792 137.428H164.468V137.528H178.792V137.428Z" fill="#E0E0E0"/>
<path d="M112.084 139.18H85.868V139.28H112.084V139.18Z" fill="#E0E0E0"/>
<path d="M83.564 139.18H79.308V139.28H83.564V139.18Z" fill="#E0E0E0"/>
<path d="M59.32 137.328H46.6V137.428H59.32V137.328Z" fill="#E0E0E0"/>
<path d="M135.8 137.328H124.26V137.428H135.8V137.328Z" fill="#E0E0E0"/>
<path d="M37.732 138.5H25.972V138.6H37.732V138.5Z" fill="#E0E0E0"/>
<path d="M94.8001 116.596H17.5641C16.959 116.595 16.3791 116.353 15.9516 115.925C15.5241 115.497 15.2841 114.917 15.2841 114.312V5.73959C15.2893 5.138 15.5317 4.56278 15.9586 4.13887C16.3855 3.71497 16.9624 3.47662 17.5641 3.47559H94.8001C95.4058 3.47559 95.9868 3.71622 96.4151 4.14455C96.8434 4.57289 97.0841 5.15383 97.0841 5.75959V114.312C97.0841 114.917 96.8434 115.498 96.4151 115.927C95.9868 116.355 95.4058 116.596 94.8001 116.596ZM17.5641 3.55559C16.9855 3.55665 16.431 3.78721 16.0223 4.19668C15.6136 4.60614 15.3841 5.16105 15.3841 5.73959V114.312C15.3841 114.89 15.6136 115.445 16.0223 115.854C16.431 116.264 16.9855 116.495 17.5641 116.496H94.8001C95.379 116.495 95.9339 116.264 96.3432 115.855C96.7526 115.445 96.983 114.891 96.9841 114.312V5.73959C96.983 5.16068 96.7526 4.60578 96.3432 4.19643C95.9339 3.78708 95.379 3.55664 94.8001 3.55559H17.5641Z" fill="#E0E0E0"/>
<path d="M181.324 116.596H104.084C103.479 116.595 102.898 116.354 102.47 115.925C102.042 115.497 101.801 114.917 101.8 114.312V5.73959C101.806 5.13763 102.05 4.56242 102.477 4.13862C102.905 3.71483 103.482 3.47661 104.084 3.47559H181.324C181.925 3.47767 182.501 3.71649 182.927 4.14028C183.353 4.56407 183.595 5.13869 183.6 5.73959V114.312C183.6 114.916 183.361 115.496 182.934 115.924C182.507 116.352 181.928 116.593 181.324 116.596ZM104.084 3.55559C103.505 3.55664 102.95 3.78708 102.541 4.19643C102.132 4.60578 101.901 5.16068 101.9 5.73959V114.312C101.901 114.891 102.132 115.445 102.541 115.855C102.95 116.264 103.505 116.495 104.084 116.496H181.324C181.903 116.495 182.458 116.264 182.867 115.855C183.277 115.445 183.507 114.891 183.508 114.312V5.73959C183.507 5.16068 183.277 4.60578 182.867 4.19643C182.458 3.78708 181.903 3.55664 181.324 3.55559H104.084Z" fill="#E0E0E0"/>
<path d="M60.88 107.775C52.254 107.778 43.8211 105.221 36.6484 100.43C29.4756 95.6381 23.8854 88.8265 20.5851 80.8568C17.2848 72.8871 16.4226 64.1176 18.1078 55.6577C19.793 47.1979 23.9497 39.4281 30.052 33.3314C30.0613 33.3217 30.0725 33.314 30.0849 33.3088C30.0973 33.3035 30.1106 33.3008 30.124 33.3008C30.1375 33.3008 30.1508 33.3035 30.1631 33.3088C30.1755 33.314 30.1867 33.3217 30.196 33.3314L38.22 41.3554C38.2297 41.3647 38.2374 41.3759 38.2427 41.3883C38.2479 41.4006 38.2506 41.4139 38.2506 41.4274C38.2506 41.4408 38.2479 41.4541 38.2427 41.4665C38.2374 41.4789 38.2297 41.4901 38.22 41.4994C33.2264 46.4896 30.0197 52.9888 29.0978 59.988C28.1759 66.9872 29.5903 74.095 33.1215 80.2081C36.6527 86.3212 42.1031 91.0977 48.6267 93.7961C55.1504 96.4944 62.3823 96.9639 69.2 95.1314C69.212 95.1262 69.225 95.1235 69.238 95.1235C69.2511 95.1235 69.264 95.1262 69.276 95.1314C69.2991 95.1445 69.3163 95.166 69.324 95.1914L72.264 106.159C72.274 106.184 72.274 106.211 72.264 106.235C72.2493 106.259 72.2265 106.276 72.2 106.283C68.5081 107.273 64.7023 107.775 60.88 107.775ZM30.124 33.5434C23.3955 40.3049 19.0814 49.0943 17.8483 58.5531C16.6152 68.0119 18.5318 77.6136 23.3019 85.8741C28.072 94.1346 35.43 100.594 44.2388 104.254C53.0475 107.914 62.8166 108.571 72.036 106.123L69.148 95.3474C62.2997 97.1617 55.0445 96.6712 48.5027 93.9516C41.9608 91.2319 36.4962 86.4345 32.9524 80.2999C29.4086 74.1653 27.9828 67.0347 28.8951 60.0091C29.8074 52.9834 33.007 46.4535 38 41.4274L30.124 33.5434Z" fill="#E0E0E0"/>
<path d="M83.632 41.5276C83.6053 41.5278 83.5795 41.5178 83.56 41.4996C77.5429 35.4959 69.39 32.1242 60.89 32.1242C52.39 32.1242 44.2371 35.4959 38.22 41.4996C38.2111 41.5092 38.2002 41.5168 38.1882 41.522C38.1761 41.5272 38.1632 41.5299 38.15 41.5299C38.1369 41.5299 38.1239 41.5272 38.1119 41.522C38.0999 41.5168 38.089 41.5092 38.08 41.4996L30.052 33.4756C30.0425 33.4666 30.0348 33.4558 30.0296 33.4437C30.0244 33.4317 30.0217 33.4187 30.0217 33.4056C30.0217 33.3925 30.0244 33.3795 30.0296 33.3675C30.0348 33.3554 30.0425 33.3446 30.052 33.3356C38.2331 25.1597 49.3259 20.5669 60.892 20.5669C72.4582 20.5669 83.551 25.1597 91.732 33.3356C91.7495 33.3547 91.7591 33.3797 91.7591 33.4056C91.7591 33.4315 91.7495 33.4564 91.732 33.4756L83.704 41.5036C83.6839 41.5204 83.6582 41.5289 83.632 41.5276ZM60.892 31.9276C69.4133 31.9126 77.5922 35.2805 83.632 41.2916L91.516 33.4036C83.378 25.3104 72.3673 20.7675 60.89 20.7675C49.4128 20.7675 38.4021 25.3104 30.264 33.4036L38.152 41.2916C44.1907 35.2783 52.37 31.9088 60.892 31.9236V31.9276Z" fill="#E0E0E0"/>
<path d="M72.16 106.295C72.1428 106.299 72.1251 106.299 72.108 106.295C72.097 106.289 72.0875 106.28 72.0799 106.27C72.0724 106.26 72.0669 106.248 72.064 106.235L69.124 95.2674C69.114 95.243 69.114 95.2157 69.124 95.1914C69.1303 95.1803 69.139 95.1706 69.1493 95.163C69.1596 95.1555 69.1714 95.1501 69.184 95.1474C74.6238 93.6944 79.585 90.8341 83.568 86.8544C87.551 82.8746 90.4154 77.9158 91.8728 72.4771C93.3302 67.0385 93.3292 61.3118 91.8699 55.8737C90.4105 50.4355 87.5444 45.4777 83.56 41.4994C83.5422 41.4796 83.5325 41.454 83.5325 41.4274C83.5325 41.4008 83.5422 41.3752 83.56 41.3554L91.6 33.3314C91.6093 33.3217 91.6205 33.314 91.6328 33.3088C91.6452 33.3035 91.6585 33.3008 91.672 33.3008C91.6854 33.3008 91.6987 33.3035 91.7111 33.3088C91.7234 33.314 91.7346 33.3217 91.744 33.3314C97.1235 38.7582 100.986 45.5006 102.947 52.886C104.908 60.2715 104.899 68.042 102.919 75.4226C100.94 82.8032 97.0609 89.536 91.6679 94.9496C86.275 100.363 79.557 104.268 72.184 106.275L72.16 106.295ZM69.34 95.2954L72.232 106.071C79.5695 104.084 86.2566 100.205 91.6245 94.8224C96.9924 89.4397 100.853 82.7418 102.82 75.3989C104.787 68.0559 104.791 60.3251 102.833 52.9799C100.874 45.6346 97.0216 38.9323 91.66 33.5434L83.772 41.4274C87.7535 45.4303 90.6144 50.4084 92.0685 55.8639C93.5226 61.3193 93.5189 67.061 92.0578 72.5145C90.5967 77.9681 87.7294 82.9426 83.7427 86.9403C79.7559 90.9381 74.7895 93.8192 69.34 95.2954Z" fill="#E0E0E0"/>
<path d="M39.248 127.312V134.436C45.2598 134.435 51.1034 132.451 55.8725 128.791C60.6416 125.131 64.0696 119.999 65.6249 114.192C67.1801 108.385 66.7756 102.227 64.4742 96.6733C62.1727 91.1196 58.1029 86.4805 52.896 83.4756L49.336 89.6476C53.1837 91.869 56.191 95.2978 57.8914 99.4024C59.5919 103.507 59.8905 108.058 58.7411 112.35C57.5916 116.641 55.0582 120.434 51.5338 123.139C48.0094 125.844 43.6909 127.311 39.248 127.312Z" fill="#E0E0E0"/>
<path d="M11.9399 107.127C11.941 114.37 14.8184 121.315 19.9394 126.436C25.0605 131.557 32.0057 134.434 39.2479 134.435V127.311C33.8951 127.31 28.7619 125.184 24.9769 121.399C21.1919 117.614 19.065 112.48 19.0639 107.127H11.9399Z" fill="#F0F0F0"/>
<path d="M11.9399 107.128H19.0639C19.0631 103.585 19.995 100.104 21.7661 97.0354C23.5371 93.9668 26.0847 91.4186 29.1529 89.647C32.221 87.8753 35.7016 86.9427 39.2445 86.9428C42.7874 86.9429 46.2679 87.8757 49.3359 89.6475L52.8959 83.4755C39.9239 75.9875 23.0919 80.5035 15.5999 93.4755C13.2041 97.6266 11.9419 102.335 11.9399 107.128Z" fill="#EBEBEB"/>
<path d="M126.964 124.116H118.168V134.436H126.964V124.116Z" fill="#F5F5F5"/>
<path d="M137.556 127.228H128.76V134.436H137.556V127.228Z" fill="#E0E0E0"/>
<path d="M148.152 129.879H139.356V134.431H148.152V129.879Z" fill="#F0F0F0"/>
<path d="M93.956 127.228H85.16V134.436H93.956V127.228Z" fill="#F5F5F5"/>
<path d="M104.548 128.824H95.752V134.436H104.548V128.824Z" fill="#E0E0E0"/>
<path d="M115.144 122.344H106.348V134.436H115.144V122.344Z" fill="#F0F0F0"/>
<path d="M159.972 123.156H151.176V134.436H159.972V123.156Z" fill="#F5F5F5"/>
<path d="M170.564 127.228H161.768V134.436H170.564V127.228Z" fill="#E0E0E0"/>
<path d="M181.16 124.952H172.364V134.436H181.16V124.952Z" fill="#F0F0F0"/>
<path d="M78.356 10.4195C78.3581 9.6012 78.6841 8.81699 79.2627 8.23833C79.8414 7.65967 80.6256 7.33365 81.444 7.33154H177.632C178.45 7.33365 179.235 7.65967 179.813 8.23833C180.392 8.81699 180.718 9.6012 180.72 10.4195V20.3595H78.356V10.4195Z" fill="#E0E0E0"/>
<path d="M100.988 13.8477C100.988 14.3099 101.125 14.7617 101.382 15.146C101.639 15.5302 102.004 15.8296 102.431 16.0063C102.858 16.183 103.328 16.229 103.781 16.1385C104.234 16.0481 104.651 15.8252 104.977 15.4981C105.304 15.171 105.526 14.7544 105.616 14.301C105.705 13.8476 105.658 13.3778 105.481 12.951C105.304 12.5242 105.004 12.1597 104.619 11.9035C104.234 11.6473 103.782 11.5109 103.32 11.5117C102.701 11.5128 102.108 11.7594 101.671 12.1973C101.234 12.6353 100.988 13.2289 100.988 13.8477Z" fill="#F5F5F5"/>
<path d="M95.048 16.1837C96.3382 16.1837 97.384 15.1379 97.384 13.8477C97.384 12.5576 96.3382 11.5117 95.048 11.5117C93.7579 11.5117 92.712 12.5576 92.712 13.8477C92.712 15.1379 93.7579 16.1837 95.048 16.1837Z" fill="#F5F5F5"/>
<path d="M86.7761 16.1837C88.0662 16.1837 89.1121 15.1379 89.1121 13.8477C89.1121 12.5576 88.0662 11.5117 86.7761 11.5117C85.4859 11.5117 84.4401 12.5576 84.4401 13.8477C84.4401 15.1379 85.4859 16.1837 86.7761 16.1837Z" fill="#F5F5F5"/>
<path d="M177.632 87.3034H81.444C80.6256 87.3013 79.8414 86.9753 79.2627 86.3966C78.6841 85.8179 78.3581 85.0337 78.356 84.2154V20.3594H180.72V84.2154C180.718 85.0337 180.392 85.8179 179.813 86.3966C179.235 86.9753 178.45 87.3013 177.632 87.3034Z" fill="#F5F5F5"/>
<path d="M71.464 20.7555C71.4671 19.9375 71.7935 19.1539 72.3719 18.5754C72.9504 17.997 73.734 17.6706 74.552 17.6675H170.74C171.558 17.6696 172.343 17.9956 172.921 18.5743C173.5 19.1529 173.826 19.9371 173.828 20.7555V30.6955H71.464V20.7555Z" fill="#FAFAFA"/>
<path d="M94.0959 24.1837C94.0959 24.6457 94.2329 25.0973 94.4896 25.4815C94.7463 25.8656 95.1111 26.165 95.538 26.3418C95.9648 26.5186 96.4345 26.5649 96.8877 26.4748C97.3408 26.3846 97.7571 26.1622 98.0837 25.8355C98.4104 25.5088 98.6329 25.0925 98.7231 24.6394C98.8132 24.1862 98.7669 23.7166 98.5901 23.2897C98.4133 22.8629 98.1139 22.498 97.7298 22.2413C97.3456 21.9847 96.894 21.8477 96.4319 21.8477C95.8124 21.8477 95.2182 22.0938 94.7801 22.5319C94.3421 22.9699 94.0959 23.5641 94.0959 24.1837Z" fill="#E0E0E0"/>
<path d="M85.824 24.1837C85.824 24.6457 85.961 25.0973 86.2177 25.4815C86.4743 25.8656 86.8392 26.165 87.266 26.3418C87.6929 26.5186 88.1626 26.5649 88.6157 26.4748C89.0688 26.3846 89.4851 26.1622 89.8118 25.8355C90.1385 25.5088 90.361 25.0925 90.4511 24.6394C90.5412 24.1862 90.495 23.7166 90.3182 23.2897C90.1414 22.8629 89.8419 22.498 89.4578 22.2413C89.0736 21.9847 88.622 21.8477 88.16 21.8477C87.5404 21.8477 86.9463 22.0938 86.5082 22.5319C86.0701 22.9699 85.824 23.5641 85.824 24.1837Z" fill="#E0E0E0"/>
<path d="M77.552 24.1837C77.552 24.6458 77.6891 25.0976 77.946 25.4819C78.2028 25.8661 78.5679 26.1655 78.995 26.3422C79.4221 26.5189 79.892 26.5649 80.3452 26.4745C80.7985 26.384 81.2147 26.1611 81.5412 25.834C81.8678 25.5069 82.0899 25.0903 82.1796 24.6369C82.2693 24.1835 82.2225 23.7137 82.045 23.2869C81.8676 22.8602 81.5676 22.4956 81.1829 22.2394C80.7982 21.9832 80.3462 21.8469 79.884 21.8477C79.2652 21.8487 78.672 22.0953 78.2348 22.5333C77.7976 22.9712 77.552 23.5648 77.552 24.1837Z" fill="#E0E0E0"/>
<path d="M170.74 97.6398H74.552C73.7337 97.6377 72.9494 97.3117 72.3708 96.733C71.7921 96.1544 71.4661 95.3701 71.464 94.5518V30.6958H173.828V94.5518C173.826 95.3701 173.5 96.1544 172.921 96.733C172.343 97.3117 171.558 97.6377 170.74 97.6398Z" fill="#E0E0E0"/>
<path d="M100 152.5C142.833 152.5 177.556 150.473 177.556 147.972C177.556 145.471 142.833 143.444 100 143.444C57.167 143.444 22.444 145.471 22.444 147.972C22.444 150.473 57.167 152.5 100 152.5Z" fill="#F5F5F5"/>
<path d="M171.756 13.4756H28.2481C27.2299 13.4787 26.2542 13.8841 25.5335 14.6033C24.8128 15.3225 24.4054 16.2974 24.4001 17.3156V113.1C24.4033 114.119 24.8099 115.095 25.5309 115.816C26.252 116.536 27.2289 116.941 28.2481 116.944H171.756C172.775 116.94 173.751 116.534 174.471 115.814C175.191 115.094 175.597 114.118 175.6 113.1V17.3156C175.595 16.2981 175.188 15.3238 174.468 14.6047C173.748 13.8856 172.774 13.4798 171.756 13.4756Z" fill="#407BFF"/>
<path opacity="0.3" d="M171.756 13.4756H28.2481C27.2299 13.4787 26.2542 13.8841 25.5335 14.6033C24.8128 15.3225 24.4054 16.2974 24.4001 17.3156V113.1C24.4033 114.119 24.8099 115.095 25.5309 115.816C26.252 116.536 27.2289 116.941 28.2481 116.944H171.756C172.775 116.94 173.751 116.534 174.471 115.814C175.191 115.094 175.597 114.118 175.6 113.1V17.3156C175.595 16.2981 175.188 15.3238 174.468 14.6047C173.748 13.8856 172.774 13.4798 171.756 13.4756Z" fill="#F5F5F5"/>
<path d="M53.6601 20.9914H31.9201C31.5831 21.0048 31.2469 20.9501 30.9316 20.8304C30.6163 20.7108 30.3284 20.5286 30.0852 20.295C29.842 20.0613 29.6485 19.7809 29.5163 19.4707C29.3842 19.1604 29.316 18.8266 29.316 18.4894C29.316 18.1521 29.3842 17.8183 29.5163 17.508C29.6485 17.1978 29.842 16.9174 30.0852 16.6837C30.3284 16.4501 30.6163 16.2679 30.9316 16.1483C31.2469 16.0286 31.5831 15.9739 31.9201 15.9874H53.6601C53.9971 15.9739 54.3333 16.0286 54.6486 16.1483C54.9639 16.2679 55.2518 16.4501 55.495 16.6837C55.7382 16.9174 55.9317 17.1978 56.0639 17.508C56.196 17.8183 56.2642 18.1521 56.2642 18.4894C56.2642 18.8266 56.196 19.1604 56.0639 19.4707C55.9317 19.7809 55.7382 20.0613 55.495 20.295C55.2518 20.5286 54.9639 20.7108 54.6486 20.8304C54.3333 20.9501 53.9971 21.0048 53.6601 20.9914ZM31.9201 16.3874C31.6363 16.375 31.353 16.4202 31.0872 16.5202C30.8214 16.6203 30.5786 16.7731 30.3734 16.9695C30.1683 17.1659 30.005 17.4018 29.8934 17.663C29.7819 17.9242 29.7244 18.2053 29.7244 18.4894C29.7244 18.7734 29.7819 19.0545 29.8934 19.3157C30.005 19.5769 30.1683 19.8128 30.3734 20.0092C30.5786 20.2056 30.8214 20.3584 31.0872 20.4585C31.353 20.5585 31.6363 20.6037 31.9201 20.5914H53.6601C53.9439 20.6037 54.2272 20.5585 54.493 20.4585C54.7588 20.3584 55.0016 20.2056 55.2068 20.0092C55.4119 19.8128 55.5752 19.5769 55.6868 19.3157C55.7983 19.0545 55.8558 18.7734 55.8558 18.4894C55.8558 18.2053 55.7983 17.9242 55.6868 17.663C55.5752 17.4018 55.4119 17.1659 55.2068 16.9695C55.0016 16.7731 54.7588 16.6203 54.493 16.5202C54.2272 16.4202 53.9439 16.375 53.6601 16.3874H31.9201Z" fill="#FAFAFA"/>
<path d="M64.1881 20.9918H61.6001C60.9538 20.9659 60.3427 20.691 59.8945 20.2247C59.4464 19.7583 59.1962 19.1366 59.1962 18.4898C59.1962 17.843 59.4464 17.2213 59.8945 16.7549C60.3427 16.2885 60.9538 16.0136 61.6001 15.9878H64.2001C64.8464 16.0136 65.4576 16.2885 65.9057 16.7549C66.3538 17.2213 66.6041 17.843 66.6041 18.4898C66.6041 19.1366 66.3538 19.7583 65.9057 20.2247C65.4576 20.691 64.8464 20.9659 64.2001 20.9918H64.1881ZM61.6001 16.3878C61.0585 16.4114 60.5469 16.6432 60.172 17.0348C59.7971 17.4264 59.5878 17.9477 59.5878 18.4898C59.5878 19.0319 59.7971 19.5531 60.172 19.9448C60.5469 20.3364 61.0585 20.5682 61.6001 20.5918H64.2001C64.7417 20.5682 65.2533 20.3364 65.6282 19.9448C66.0031 19.5531 66.2124 19.0319 66.2124 18.4898C66.2124 17.9477 66.0031 17.4264 65.6282 17.0348C65.2533 16.6432 64.7417 16.4114 64.2001 16.3878H61.6001Z" fill="#FAFAFA"/>
<path d="M175.6 23.4155H24.4001V109.648H175.6V23.4155Z" fill="#407BFF"/>
<path opacity="0.8" d="M175.6 23.4155H24.4001V109.648H175.6V23.4155Z" fill="#F5F5F5"/>
<path opacity="0.9" d="M52.4962 96.7517C50.8161 96.7547 49.1372 96.6599 47.4682 96.4677C37.8682 95.3677 29.4282 90.7917 24.3202 83.9157C24.3043 83.8945 24.2974 83.8678 24.3012 83.8415C24.3049 83.8153 24.319 83.7916 24.3402 83.7757C24.3614 83.7598 24.3881 83.7529 24.4143 83.7567C24.4406 83.7604 24.4643 83.7745 24.4802 83.7957C29.5522 90.6277 37.9402 95.1757 47.4882 96.2717C55.1242 97.1477 63.3202 95.9997 73.2802 92.6717C76.2242 91.6837 79.2042 90.5597 82.0802 89.4717C91.3082 85.9797 100.848 82.3677 110.88 82.7637C115.68 82.9517 120.48 84.0677 125.12 85.1637C127.408 85.6957 129.772 86.2437 132.108 86.6757C140.944 88.3117 147.736 87.6397 152.872 84.6237C154.313 83.7334 155.69 82.7458 156.996 81.6677C158.816 80.2397 160.692 78.7597 162.848 77.8357C164.914 76.9894 167.151 76.6443 169.375 76.8285C171.6 77.0128 173.75 77.7211 175.648 78.8957C175.659 78.9022 175.669 78.911 175.677 78.9215C175.685 78.932 175.691 78.944 175.694 78.9568C175.697 78.9695 175.697 78.9827 175.695 78.9956C175.692 79.0085 175.687 79.0208 175.68 79.0317C175.674 79.043 175.665 79.0529 175.654 79.0607C175.644 79.0685 175.632 79.074 175.619 79.077C175.606 79.08 175.593 79.0804 175.58 79.0781C175.567 79.0758 175.555 79.0709 175.544 79.0637C173.672 77.9057 171.552 77.2074 169.358 77.026C167.163 76.8445 164.957 77.185 162.92 78.0197C160.792 78.9317 158.92 80.4197 157.116 81.8277C155.803 82.9095 154.418 83.9023 152.972 84.7997C147.792 87.8397 140.952 88.5157 132.068 86.8717C129.728 86.4397 127.36 85.8877 125.072 85.3557C120.44 84.2797 115.648 83.1637 110.868 82.9797C100.892 82.5797 91.3642 86.1797 82.1522 89.6757C79.2682 90.7677 76.2842 91.8957 73.3522 92.8757C65.5002 95.4757 58.7442 96.7517 52.4962 96.7517Z" fill="#FAFAFA"/>
<g style="mix-blend-mode:multiply">
<path d="M150.676 62.7354C143.536 62.7354 135.84 60.9714 126.652 57.2394C123.704 56.0394 120.72 54.7034 117.852 53.4074C108.652 49.2634 99.1121 44.9794 89.1361 44.6594C84.3361 44.5074 79.5681 45.2794 74.9361 46.0274C72.6441 46.3954 70.2761 46.7794 67.9361 47.0434C59.0521 48.0554 52.2161 46.8874 47.0361 43.4794C45.5878 42.4793 44.2037 41.3892 42.8921 40.2154C41.0681 38.6754 39.2001 37.0754 37.0681 35.9914C35.1048 35.0097 32.9356 34.5107 30.7407 34.5357C28.5458 34.5608 26.3885 35.1092 24.4481 36.1354C24.4246 36.1472 24.3975 36.1496 24.3723 36.1422C24.347 36.1348 24.3255 36.1181 24.3121 36.0954C24.3058 36.0839 24.3018 36.0712 24.3004 36.0581C24.299 36.045 24.3002 36.0318 24.3039 36.0191C24.3076 36.0065 24.3138 35.9947 24.322 35.9845C24.3303 35.9742 24.3406 35.9657 24.3521 35.9594C26.3209 34.921 28.5086 34.366 30.7343 34.3403C32.96 34.3146 35.1599 34.8188 37.1521 35.8114C39.3041 36.8874 41.1841 38.4994 43.0001 40.0634C44.3048 41.2321 45.6822 42.317 47.1241 43.3114C52.2601 46.6954 59.0561 47.8514 67.8921 46.8434C70.2281 46.5794 72.5921 46.1994 74.8801 45.8274C79.5201 45.0794 84.3201 44.3074 89.1161 44.4594C99.1361 44.7834 108.68 49.0714 117.916 53.2234C120.8 54.5194 123.78 55.8594 126.716 57.0554C136.676 61.0994 144.864 62.8274 152.508 62.4954C162.052 62.0954 170.436 58.1354 175.508 51.6674C175.517 51.6579 175.528 51.6502 175.54 51.645C175.552 51.6398 175.565 51.6371 175.578 51.6371C175.591 51.6371 175.604 51.6398 175.616 51.645C175.628 51.6502 175.639 51.6579 175.648 51.6674C175.659 51.6753 175.667 51.6852 175.674 51.6965C175.681 51.7078 175.685 51.7203 175.687 51.7333C175.689 51.7463 175.688 51.7595 175.685 51.7723C175.682 51.785 175.676 51.7969 175.668 51.8074C170.56 58.3194 162.12 62.2954 152.516 62.7114C151.916 62.7234 151.296 62.7354 150.676 62.7354Z" fill="#407BFF"/>
</g>
<path opacity="0.7" d="M150.676 62.7354C143.536 62.7354 135.84 60.9714 126.652 57.2394C123.704 56.0394 120.72 54.7034 117.852 53.4074C108.652 49.2634 99.1121 44.9794 89.1361 44.6594C84.3361 44.5074 79.5681 45.2794 74.9361 46.0274C72.6441 46.3954 70.2761 46.7794 67.9361 47.0434C59.0521 48.0554 52.2161 46.8874 47.0361 43.4794C45.5878 42.4793 44.2037 41.3892 42.8921 40.2154C41.0681 38.6754 39.2001 37.0754 37.0681 35.9914C35.1048 35.0097 32.9356 34.5107 30.7407 34.5357C28.5458 34.5608 26.3885 35.1092 24.4481 36.1354C24.4246 36.1472 24.3975 36.1496 24.3723 36.1422C24.347 36.1348 24.3255 36.1181 24.3121 36.0954C24.3058 36.0839 24.3018 36.0712 24.3004 36.0581C24.299 36.045 24.3002 36.0318 24.3039 36.0191C24.3076 36.0065 24.3138 35.9947 24.322 35.9845C24.3303 35.9742 24.3406 35.9657 24.3521 35.9594C26.3209 34.921 28.5086 34.366 30.7343 34.3403C32.96 34.3146 35.1599 34.8188 37.1521 35.8114C39.3041 36.8874 41.1841 38.4994 43.0001 40.0634C44.3048 41.2321 45.6822 42.317 47.1241 43.3114C52.2601 46.6954 59.0561 47.8514 67.8921 46.8434C70.2281 46.5794 72.5921 46.1994 74.8801 45.8274C79.5201 45.0794 84.3201 44.3074 89.1161 44.4594C99.1361 44.7834 108.68 49.0714 117.916 53.2234C120.8 54.5194 123.78 55.8594 126.716 57.0554C136.676 61.0994 144.864 62.8274 152.508 62.4954C162.052 62.0954 170.436 58.1354 175.508 51.6674C175.517 51.6579 175.528 51.6502 175.54 51.645C175.552 51.6398 175.565 51.6371 175.578 51.6371C175.591 51.6371 175.604 51.6398 175.616 51.645C175.628 51.6502 175.639 51.6579 175.648 51.6674C175.659 51.6753 175.667 51.6852 175.674 51.6965C175.681 51.7078 175.685 51.7203 175.687 51.7333C175.689 51.7463 175.688 51.7595 175.685 51.7723C175.682 51.785 175.676 51.7969 175.668 51.8074C170.56 58.3194 162.12 62.2954 152.516 62.7114C151.916 62.7234 151.296 62.7354 150.676 62.7354Z" fill="#F5F5F5"/>
<path d="M163.788 106.952H36.2121C33.7964 106.949 31.4806 105.988 29.7724 104.279C28.0643 102.571 27.1033 100.255 27.1001 97.8397V35.2277C27.1033 32.812 28.0643 30.4962 29.7724 28.7881C31.4806 27.0799 33.7964 26.1189 36.2121 26.1157H163.788C166.204 26.1189 168.52 27.0799 170.228 28.7881C171.936 30.4962 172.897 32.812 172.9 35.2277V97.8397C172.897 100.255 171.936 102.571 170.228 104.279C168.52 105.988 166.204 106.949 163.788 106.952ZM36.2121 26.3157C33.8495 26.3189 31.5845 27.2589 29.9139 28.9295C28.2432 30.6001 27.3033 32.8651 27.3001 35.2277V97.8397C27.3033 100.202 28.2432 102.467 29.9139 104.138C31.5845 105.809 33.8495 106.749 36.2121 106.752H163.788C166.151 106.749 168.416 105.809 170.086 104.138C171.757 102.467 172.697 100.202 172.7 97.8397V35.2277C172.697 32.8651 171.757 30.6001 170.086 28.9295C168.416 27.2589 166.151 26.3189 163.788 26.3157H36.2121Z" fill="#FAFAFA"/>
<path d="M42.9601 76.4795H35.5321V109.651H42.9601V76.4795Z" fill="#FAFAFA"/>
<path d="M54.0081 69.7075H46.5801V109.648H54.0081V69.7075Z" fill="#FAFAFA"/>
<path d="M65.0521 63.0596H57.6241V109.652H65.0521V63.0596Z" fill="#FAFAFA"/>
<path d="M76.1001 54.9077H68.6721V109.648H76.1001V54.9077Z" fill="#FAFAFA"/>
<path d="M87.1441 66.5317H79.7161V109.648H87.1441V66.5317Z" fill="#FAFAFA"/>
<path d="M98.1922 50.3755H90.7642V109.651H98.1922V50.3755Z" fill="#407BFF"/>
<path opacity="0.2" d="M98.1922 50.3755H90.7642V109.651H98.1922V50.3755Z" fill="white"/>
<path d="M95.5602 53.4356C95.0885 54.7339 94.2206 55.851 93.0793 56.6291C91.938 57.4072 90.581 57.8069 89.2002 57.7716V47.9316H95.1122C95.5815 48.7617 95.8646 49.6839 95.9419 50.6343C96.0193 51.5847 95.889 52.5406 95.5602 53.4356Z" fill="#407BFF"/>
<path opacity="0.2" d="M95.5602 53.4356C95.0885 54.7339 94.2206 55.851 93.0793 56.6291C91.938 57.4072 90.581 57.8069 89.2002 57.7716V47.9316H95.1122C95.5815 48.7617 95.8646 49.6839 95.9419 50.6343C96.0193 51.5847 95.889 52.5406 95.5602 53.4356Z" fill="white"/>
<path d="M109.236 70.5518H101.808V109.648H109.236V70.5518Z" fill="#FAFAFA"/>
<path d="M120.284 57.4395H112.856V109.651H120.284V57.4395Z" fill="#FAFAFA"/>
<path d="M131.328 96.5874H123.9V109.647H131.328V96.5874Z" fill="#407BFF"/>
<path opacity="0.3" d="M131.328 96.5874H123.9V109.647H131.328V96.5874Z" fill="black"/>
<path d="M142.376 54.1597H134.948V109.652H142.376V54.1597Z" fill="#FAFAFA"/>
<path d="M153.42 38.7754H145.992V109.651H153.42V38.7754Z" fill="#407BFF"/>
<path opacity="0.2" d="M153.42 38.7754H145.992V109.651H153.42V38.7754Z" fill="white"/>
<path d="M164.468 71.6157H157.04V109.648H164.468V71.6157Z" fill="#FAFAFA"/>
<path opacity="0.3" d="M95.56 53.436C95.0883 54.7342 94.2204 55.8514 93.0791 56.6295C91.9378 57.4075 90.5808 57.8072 89.2 57.772C88.4868 57.7542 87.7813 57.6191 87.112 57.372C85.8863 56.9253 84.8206 56.1253 84.0496 55.073C83.2786 54.0207 82.8369 52.7634 82.7805 51.4601C82.724 50.1568 83.0553 48.866 83.7324 47.751C84.4095 46.636 85.402 45.7467 86.5845 45.1958C87.767 44.6448 89.0863 44.4569 90.3755 44.6557C91.6648 44.8545 92.8662 45.4311 93.8278 46.3127C94.7893 47.1943 95.4679 48.3412 95.7777 49.6084C96.0874 50.8756 96.0144 52.2062 95.568 53.432L95.56 53.436Z" fill="#FAFAFA"/>
<path opacity="0.4" d="M94.54 47.076L82.9 52.5C82.88 52.4 82.86 52.304 82.844 52.204C82.7413 51.5632 82.7345 50.9107 82.824 50.268L92.876 45.584C93.5122 45.9821 94.0751 46.4868 94.54 47.076Z" fill="#FAFAFA"/>
<path opacity="0.4" d="M95.96 51.0479L85.016 56.144C84.2551 55.48 83.6582 54.649 83.272 53.716L95.22 48.1479C95.6857 49.0451 95.9389 50.0373 95.96 51.0479Z" fill="#FAFAFA"/>
<path d="M91.964 44.028C90.5518 43.5162 89.0195 43.4344 87.5607 43.7929C86.1019 44.1514 84.7821 44.9342 83.768 46.0423C82.7538 47.1505 82.0908 48.5343 81.8627 50.0191C81.6346 51.5038 81.8516 53.0229 82.4863 54.3844C83.1209 55.7459 84.1449 56.8888 85.4287 57.6687C86.7126 58.4486 88.1988 58.8305 89.6996 58.7663C91.2004 58.702 92.6485 58.1945 93.861 57.3077C95.0735 56.421 95.996 55.1948 96.512 53.784C96.8555 52.8449 97.0103 51.8473 96.9676 50.8482C96.9248 49.8492 96.6853 48.8684 96.2628 47.9621C95.8403 47.0558 95.2431 46.2418 94.5055 45.5667C93.7678 44.8916 92.9042 44.3687 91.964 44.028ZM87.308 56.828C86.1936 56.4222 85.2244 55.6953 84.5229 54.739C83.8214 53.7827 83.419 52.6399 83.3666 51.4551C83.3142 50.2702 83.6142 49.0964 84.2285 48.0819C84.8429 47.0674 85.7442 46.2578 86.8185 45.7553C87.8928 45.2527 89.0919 45.0799 90.2644 45.2585C91.4369 45.4371 92.5301 45.9592 93.4061 46.7589C94.282 47.5585 94.9013 48.5998 95.1857 49.7512C95.4701 50.9026 95.4069 52.1125 95.004 53.228C94.7352 53.9696 94.3227 54.6509 93.7902 55.233C93.2578 55.815 92.6158 56.2863 91.9009 56.6199C91.1861 56.9536 90.4125 57.143 89.6244 57.1773C88.8363 57.2116 88.0492 57.0902 87.308 56.82V56.828Z" fill="#407BFF"/>
<path opacity="0.3" d="M91.964 44.028C90.5518 43.5162 89.0195 43.4344 87.5607 43.7929C86.1019 44.1514 84.7821 44.9342 83.768 46.0423C82.7538 47.1505 82.0908 48.5343 81.8627 50.0191C81.6346 51.5038 81.8516 53.0229 82.4863 54.3844C83.1209 55.7459 84.1449 56.8888 85.4287 57.6687C86.7126 58.4486 88.1988 58.8305 89.6996 58.7663C91.2004 58.702 92.6485 58.1945 93.861 57.3077C95.0735 56.421 95.996 55.1948 96.512 53.784C96.8555 52.8449 97.0103 51.8473 96.9676 50.8482C96.9248 49.8492 96.6853 48.8684 96.2628 47.9621C95.8403 47.0558 95.2431 46.2418 94.5055 45.5667C93.7678 44.8916 92.9042 44.3687 91.964 44.028ZM87.308 56.828C86.1936 56.4222 85.2244 55.6953 84.5229 54.739C83.8214 53.7827 83.419 52.6399 83.3666 51.4551C83.3142 50.2702 83.6142 49.0964 84.2285 48.0819C84.8429 47.0674 85.7442 46.2578 86.8185 45.7553C87.8928 45.2527 89.0919 45.0799 90.2644 45.2585C91.4369 45.4371 92.5301 45.9592 93.4061 46.7589C94.282 47.5585 94.9013 48.5998 95.1857 49.7512C95.4701 50.9026 95.4069 52.1125 95.004 53.228C94.7352 53.9696 94.3227 54.6509 93.7902 55.233C93.2578 55.815 92.6158 56.2863 91.9009 56.6199C91.1861 56.9536 90.4125 57.143 89.6244 57.1773C88.8363 57.2116 88.0492 57.0902 87.308 56.82V56.828Z" fill="black"/>
<path d="M87.78 57.7359C87.4 59.5719 86.872 61.3599 86.324 63.1359C86.032 64.0199 85.76 64.9079 85.444 65.7799L84.98 67.0959C84.9072 67.3467 84.7777 67.5774 84.6016 67.7703C84.4254 67.9631 84.2073 68.1128 83.964 68.2079C83.705 68.3184 83.4137 68.3261 83.1492 68.2295C82.8847 68.133 82.6669 67.9393 82.54 67.6879C82.4146 67.4589 82.3436 67.2042 82.3325 66.9434C82.3214 66.6825 82.3705 66.4227 82.476 66.1839L82.968 64.8799C83.288 64.0079 83.652 63.1519 83.996 62.2879C84.716 60.5719 85.464 58.8679 86.356 57.2159C86.4412 57.0505 86.5838 56.9219 86.7571 56.8542C86.9304 56.7864 87.1225 56.7843 87.2973 56.8481C87.472 56.9119 87.6175 57.0373 87.7064 57.2008C87.7953 57.3642 87.8214 57.5545 87.78 57.7359Z" fill="#407BFF"/>
<path opacity="0.3" d="M87.78 57.7359C87.4 59.5719 86.872 61.3599 86.324 63.1359C86.032 64.0199 85.76 64.9079 85.444 65.7799L84.98 67.0959C84.9072 67.3467 84.7777 67.5774 84.6016 67.7703C84.4254 67.9631 84.2073 68.1128 83.964 68.2079C83.705 68.3184 83.4137 68.3261 83.1492 68.2295C82.8847 68.133 82.6669 67.9393 82.54 67.6879C82.4146 67.4589 82.3436 67.2042 82.3325 66.9434C82.3214 66.6825 82.3705 66.4227 82.476 66.1839L82.968 64.8799C83.288 64.0079 83.652 63.1519 83.996 62.2879C84.716 60.5719 85.464 58.8679 86.356 57.2159C86.4412 57.0505 86.5838 56.9219 86.7571 56.8542C86.9304 56.7864 87.1225 56.7843 87.2973 56.8481C87.472 56.9119 87.6175 57.0373 87.7064 57.2008C87.7953 57.3642 87.8214 57.5545 87.78 57.7359Z" fill="black"/>
<path d="M58.216 55.9877C58.144 56.0877 58.028 56.2637 57.936 56.4077L57.636 56.8757C57.44 57.1917 57.236 57.5157 57.076 57.8477C56.7162 58.4964 56.3917 59.164 56.104 59.8477C55.5378 61.1743 55.1867 62.5826 55.064 64.0197V64.2877V64.3437C55.064 64.3797 55.136 64.4957 55.34 64.6117C55.9168 64.8872 56.5389 65.0553 57.176 65.1077C58.7131 65.2575 60.2605 65.2708 61.8 65.1477L62.148 66.8077C60.4994 67.342 58.784 67.6422 57.052 67.6997C56.5855 67.7035 56.1193 67.6781 55.656 67.6237C55.1293 67.5617 54.6137 67.4271 54.124 67.2237C53.4815 66.9686 52.9261 66.534 52.524 65.9717C52.3063 65.6456 52.1503 65.2822 52.064 64.8997C51.9977 64.5882 51.9668 64.2702 51.972 63.9517C51.967 62.1247 52.3062 60.3131 52.972 58.6117C53.2788 57.7811 53.6424 56.9725 54.06 56.1917C54.268 55.7917 54.492 55.4237 54.724 55.0477C54.84 54.8597 54.96 54.6717 55.088 54.4877C55.216 54.3037 55.332 54.1317 55.488 53.9077L58.216 55.9877Z" fill="#E4897B"/>
<path d="M57.02 50.4237C55.636 50.7597 52.364 56.2157 52.364 56.2157L59.696 59.2517C59.696 59.2517 61.02 55.0997 60.188 53.4397C59.324 51.7117 58.888 49.9637 57.02 50.4237Z" fill="#407BFF"/>
<path opacity="0.2" d="M57.02 50.4237C55.636 50.7597 52.364 56.2157 52.364 56.2157L59.696 59.2517C59.696 59.2517 61.02 55.0997 60.188 53.4397C59.324 51.7117 58.888 49.9637 57.02 50.4237Z" fill="black"/>
<path d="M62.108 64.9756L65.468 64.6196L63.6 67.4436C63.6 67.4436 61.456 67.2476 60.908 65.9636L62.108 64.9756Z" fill="#E4897B"/>
<path d="M67.864 66.1156L65.284 68.9196L63.58 67.4436L65.468 64.6196L67.864 66.1156Z" fill="#E4897B"/>
<path d="M57.688 146.364C57.3885 146.357 57.0907 146.316 56.8 146.244C56.7853 146.24 56.7722 146.232 56.7622 146.221C56.7522 146.209 56.7459 146.195 56.744 146.18C56.7411 146.165 56.7426 146.15 56.7483 146.135C56.7539 146.121 56.7636 146.109 56.776 146.1C56.892 146.024 57.9 145.368 58.296 145.544C58.3399 145.564 58.3778 145.595 58.4059 145.635C58.434 145.674 58.4512 145.72 58.456 145.768C58.4712 145.844 58.467 145.923 58.444 145.997C58.4209 146.071 58.3797 146.138 58.324 146.192C58.1387 146.322 57.9136 146.383 57.688 146.364ZM57.028 146.132C57.612 146.248 58.048 146.228 58.228 146.072C58.265 146.037 58.2919 145.992 58.306 145.943C58.32 145.894 58.3207 145.842 58.308 145.792C58.3082 145.77 58.3018 145.748 58.2897 145.73C58.2776 145.711 58.2603 145.697 58.24 145.688C58.024 145.6 57.44 145.876 57.028 146.132Z" fill="#407BFF"/>
<path d="M56.82 146.248C56.7991 146.247 56.7793 146.238 56.7645 146.223C56.7497 146.208 56.741 146.189 56.74 146.168C56.74 146.128 56.74 145.164 57.1 144.84C57.144 144.797 57.1972 144.765 57.2554 144.747C57.3137 144.728 57.3755 144.723 57.436 144.732C57.4996 144.732 57.5611 144.755 57.6099 144.796C57.6588 144.837 57.692 144.893 57.704 144.956C57.78 145.332 57.176 146.056 56.86 146.236C56.848 146.243 56.8342 146.248 56.82 146.248ZM57.38 144.888C57.3154 144.888 57.2535 144.914 57.208 144.96C56.9996 145.27 56.8933 145.638 56.904 146.012C57.22 145.76 57.596 145.212 57.548 144.988C57.548 144.948 57.52 144.904 57.416 144.892L57.38 144.888Z" fill="#407BFF"/>
<path d="M72.928 146.364C72.5731 146.356 72.2196 146.316 71.872 146.244C71.8564 146.241 71.842 146.234 71.8312 146.222C71.8203 146.211 71.8136 146.196 71.812 146.18C71.8085 146.164 71.8104 146.146 71.8177 146.131C71.8249 146.116 71.837 146.104 71.852 146.096C72.004 146.02 73.332 145.336 73.744 145.56C73.7831 145.581 73.8161 145.611 73.8399 145.648C73.8637 145.685 73.8776 145.728 73.88 145.772C73.8923 145.845 73.8858 145.92 73.8614 145.99C73.8369 146.06 73.7952 146.122 73.74 146.172C73.4988 146.326 73.2126 146.393 72.928 146.364ZM72.128 146.132C72.872 146.256 73.424 146.224 73.628 146.04C73.6614 146.008 73.6868 145.968 73.7021 145.924C73.7173 145.881 73.7221 145.834 73.716 145.788C73.7157 145.77 73.7103 145.752 73.7004 145.736C73.6905 145.721 73.6766 145.708 73.66 145.7C73.444 145.58 72.684 145.876 72.136 146.132H72.128Z" fill="#407BFF"/>
<path d="M71.888 146.248C71.8739 146.253 71.8582 146.253 71.844 146.248C71.8325 146.24 71.8231 146.229 71.8169 146.216C71.8106 146.204 71.8075 146.19 71.808 146.176C71.808 146.14 71.884 145.236 72.304 144.888C72.3638 144.835 72.4337 144.796 72.5094 144.772C72.5851 144.748 72.665 144.739 72.744 144.748C72.964 144.772 73.028 144.884 73.04 144.976C73.104 145.376 72.328 146.072 71.92 146.256L71.888 146.248ZM72.688 144.888C72.5866 144.888 72.4886 144.925 72.412 144.992C72.1772 145.289 72.0378 145.65 72.012 146.028C72.412 145.78 72.952 145.228 72.912 144.984C72.912 144.984 72.912 144.904 72.756 144.892L72.688 144.888Z" fill="#407BFF"/>
<path d="M62.864 42.3198C63.264 44.3198 64.176 48.3198 62.792 49.6598C62.792 49.6598 63.348 51.6598 67.044 51.6598C71.104 51.6598 68.972 49.6598 68.972 49.6598C66.752 49.1318 66.796 47.4878 67.176 45.9438L62.864 42.3198Z" fill="#E4897B"/>
<path d="M71.248 38.7801C71.2046 38.7797 71.1631 38.7625 71.132 38.7321C71.1027 38.7022 71.0863 38.662 71.0863 38.6201C71.0863 38.5782 71.1027 38.538 71.132 38.5081C71.3124 38.3335 71.5312 38.2038 71.771 38.1294C72.0107 38.0551 72.2646 38.0382 72.512 38.0801C72.5324 38.0847 72.5517 38.0935 72.5687 38.1057C72.5856 38.118 72.5999 38.1336 72.6108 38.1515C72.6216 38.1694 72.6287 38.1893 72.6317 38.21C72.6346 38.2307 72.6334 38.2518 72.628 38.2721C72.6238 38.2924 72.6155 38.3117 72.6037 38.3288C72.5919 38.3459 72.5768 38.3604 72.5593 38.3716C72.5418 38.3828 72.5222 38.3904 72.5017 38.3939C72.4813 38.3974 72.4603 38.3968 72.44 38.3921C72.2438 38.3574 72.0421 38.3706 71.852 38.4305C71.6619 38.4904 71.489 38.5952 71.348 38.7361C71.3352 38.7497 71.3197 38.7607 71.3025 38.7682C71.2853 38.7758 71.2668 38.7798 71.248 38.7801Z" fill="#263238"/>
<path d="M71.736 40.8237C71.8313 41.4808 72.0171 42.1216 72.288 42.7277C72.1312 42.7924 71.962 42.8216 71.7926 42.8133C71.6232 42.805 71.4577 42.7594 71.308 42.6797L71.736 40.8237Z" fill="#DE5753"/>
<path d="M71.6 40.3158C71.54 40.5798 71.632 40.8278 71.804 40.8678C71.976 40.9078 72.164 40.7278 72.204 40.4678C72.244 40.2078 72.176 39.9598 72.004 39.9158C71.832 39.8718 71.664 40.0518 71.6 40.3158Z" fill="#263238"/>
<path d="M71.948 39.908L72.62 39.876C72.62 39.876 72.184 40.296 71.948 39.908Z" fill="#263238"/>
<path d="M68.204 146.168H71.556L71.728 138.408H68.376L68.204 146.168Z" fill="#E4897B"/>
<path d="M52.98 146.168H56.332L57.36 138.408H54.008L52.98 146.168Z" fill="#E4897B"/>
<path d="M56.5359 145.78H52.7719C52.7075 145.778 52.6448 145.801 52.596 145.843C52.5472 145.885 52.5159 145.944 52.5079 146.008L52.1079 148.988C52.1013 149.063 52.1104 149.14 52.1347 149.211C52.159 149.283 52.198 149.349 52.2491 149.405C52.3002 149.461 52.3624 149.506 52.4318 149.537C52.5011 149.568 52.5761 149.584 52.6519 149.584C53.9639 149.56 54.5959 149.484 56.2519 149.484C57.2679 149.484 58.7559 149.588 60.1639 149.588C61.5719 149.588 61.6359 148.196 61.0479 148.072C58.4199 147.508 57.9999 146.728 57.1119 145.984C56.9498 145.85 56.7459 145.778 56.5359 145.78Z" fill="#263238"/>
<path d="M71.6681 145.78H67.9041C67.8394 145.779 67.7767 145.802 67.7274 145.844C67.6782 145.886 67.6457 145.944 67.6361 146.008L67.2361 148.988C67.2282 149.063 67.2363 149.14 67.2599 149.212C67.2835 149.284 67.322 149.35 67.373 149.406C67.4239 149.463 67.4862 149.507 67.5556 149.538C67.6251 149.569 67.7002 149.584 67.7761 149.584C69.0881 149.56 69.7201 149.484 71.3761 149.484C72.3961 149.484 74.5041 149.588 75.9081 149.588C77.3121 149.588 77.3801 148.196 76.7961 148.072C74.1641 147.508 73.1281 146.728 72.2361 145.984C72.0765 145.851 71.8755 145.779 71.6681 145.78Z" fill="#263238"/>
<path d="M71.728 138.412L71.64 142.408H68.288L68.376 138.412H71.728Z" fill="#CE6F64"/>
<path d="M54.008 138.412H57.3599L56.828 142.408H53.476L54.008 138.412Z" fill="#CE6F64"/>
<path d="M74.64 50.5199C74.64 50.5199 76.2399 51.0839 73.1719 70.7399H59.5719C59.7639 65.2039 59.748 61.7879 57.028 50.4239C58.931 50.0305 60.8601 49.7752 62.8 49.6599C64.8574 49.5157 66.9225 49.5157 68.9799 49.6599C71.6279 49.9039 74.64 50.5199 74.64 50.5199Z" fill="#407BFF"/>
<path opacity="0.2" d="M74.64 50.5199C74.64 50.5199 76.2399 51.0839 73.1719 70.7399H59.5719C59.7639 65.2039 59.748 61.7879 57.028 50.4239C58.931 50.0305 60.8601 49.7752 62.8 49.6599C64.8574 49.5157 66.9225 49.5157 68.9799 49.6599C71.6279 49.9039 74.64 50.5199 74.64 50.5199Z" fill="black"/>
<path d="M75.74 54.248C76.032 55.964 76.412 57.7601 76.84 59.4721C77.06 60.3321 77.308 61.1801 77.584 62.0041C77.8418 62.8104 78.1559 63.5977 78.524 64.3601C78.691 64.7115 78.8821 65.051 79.096 65.376C79.196 65.5321 79.3 65.664 79.404 65.8C79.4652 65.8806 79.5335 65.9556 79.608 66.024C79.7044 66.119 79.8328 66.1746 79.968 66.18C80.2349 66.176 80.4974 66.1118 80.736 65.992C81.4444 65.6375 82.0967 65.1806 82.672 64.636C82.984 64.348 83.3 64.044 83.608 63.732C83.916 63.42 84.22 63.076 84.496 62.768L85.928 63.6761C85.7095 64.1199 85.4664 64.5512 85.2 64.968C84.9417 65.3837 84.6599 65.7844 84.356 66.168C83.7219 67.0251 82.9437 67.7655 82.056 68.356C81.5036 68.7206 80.876 68.9557 80.22 69.044C79.4253 69.1419 78.6209 68.9655 77.94 68.544C77.6348 68.3491 77.3541 68.1181 77.104 67.856C76.9088 67.6457 76.7245 67.4254 76.552 67.1961C76.2314 66.7766 75.94 66.3356 75.68 65.876C74.7645 64.1289 74.0493 62.2838 73.548 60.376C73.292 59.452 73.052 58.528 72.86 57.576C72.668 56.624 72.488 55.7241 72.348 54.7401L75.74 54.248Z" fill="#E4897B"/>
<path d="M74.64 50.5201C76.024 50.8721 77.04 56.5561 77.04 56.5561L71.736 60.1761C71.736 60.1761 69.564 53.4081 70.616 51.8921C71.7 50.3081 72.624 50.0081 74.64 50.5201Z" fill="#407BFF"/>
<path opacity="0.2" d="M74.64 50.5201C76.024 50.8721 77.04 56.5561 77.04 56.5561L71.736 60.1761C71.736 60.1761 69.564 53.4081 70.616 51.8921C71.7 50.3081 72.624 50.0081 74.64 50.5201Z" fill="black"/>
<path d="M85.74 63.9359L87.556 61.3439L84.4 61.2759C84.4 61.2759 83.656 62.7759 84.16 64.0759L85.74 63.9359Z" fill="#E4897B"/>
<path d="M87.84 59.9919L87.744 59.7399C87.7229 59.6854 87.6892 59.6365 87.6457 59.5974C87.6022 59.5582 87.5501 59.5299 87.4936 59.5147C87.4371 59.4995 87.3778 59.4979 87.3205 59.5099C87.2632 59.5219 87.2096 59.5473 87.164 59.5839L86.272 60.2959C86.1424 60.4008 85.9833 60.4625 85.817 60.4726C85.6506 60.4826 85.4852 60.4404 85.344 60.3519L85.068 60.0399C85.041 60.0072 85.0071 59.9809 84.9687 59.9629C84.9303 59.9448 84.8884 59.9354 84.846 59.9354C84.8036 59.9354 84.7617 59.9448 84.7233 59.9629C84.6849 59.9809 84.651 60.0072 84.624 60.0399L84.556 60.1199C84.4113 60.296 84.3197 60.5097 84.292 60.7359L84.136 62.0399L84.8 61.5159L87.56 61.3359L87.816 60.7839C87.8731 60.6603 87.9046 60.5265 87.9087 60.3904C87.9128 60.2543 87.8895 60.1188 87.84 59.9919Z" fill="#E4897B"/>
<path d="M62.972 37.3159C62.424 40.5999 62.124 41.9759 63.372 44.0239C65.252 47.0999 69.396 47.0799 70.908 44.0239C72.272 41.2839 72.936 36.3759 70.072 34.3399C69.4456 33.8867 68.7133 33.6021 67.9453 33.5135C67.1772 33.425 66.3993 33.5355 65.6863 33.8343C64.9733 34.1332 64.3491 34.6104 63.8738 35.2201C63.3984 35.8298 63.0879 36.5516 62.972 37.3159Z" fill="#E4897B"/>
<path d="M71.7439 55.7757C74.9439 59.7037 68.9439 64.6197 61.4679 63.0597C50.7639 60.8197 59.8679 56.1757 56.3119 52.8077C52.7559 49.4397 55.8799 47.3437 58.0439 44.8437C60.2079 42.3437 60.3719 42.2677 60.2119 37.4757C60.0519 32.6837 65.4399 31.4757 69.4759 32.8437C72.4119 33.8437 71.0759 38.3957 69.3679 40.7357C67.6599 43.0757 72.3279 44.5077 72.0199 47.7077C71.7119 50.9077 68.7399 52.1077 71.7439 55.7757Z" fill="#263238"/>
<path d="M66.884 32.3399C70.316 31.9759 72.608 32.4159 72.884 35.2639C73.16 38.1119 68.94 39.7759 68.94 39.7759L66.884 32.3399Z" fill="#263238"/>
<path d="M68.328 40.1799C68.253 40.8209 68.4325 41.4658 68.828 41.9759C69.36 42.6439 70.12 42.2919 70.388 41.5319C70.632 40.8479 70.644 39.6719 69.912 39.2759C69.7509 39.193 69.5717 39.1516 69.3906 39.1555C69.2094 39.1595 69.0322 39.2085 68.8748 39.2983C68.7175 39.3881 68.5851 39.5158 68.4896 39.6697C68.3941 39.8237 68.3385 39.999 68.328 40.1799Z" fill="#E4897B"/>
<path d="M69.576 70.7437C69.576 70.7437 68.824 77.6477 67.824 86.0037C67.184 91.3357 66.444 97.2596 65.732 102.36C65.556 103.652 65.376 104.888 65.204 106.052C63.644 116.52 57.632 141.652 57.632 141.652H53.064C53.064 141.652 55.616 117.376 56.376 107.02C58.3 80.8236 55.244 76.8317 59.576 70.7597L69.576 70.7437Z" fill="#263238"/>
<path d="M58.384 141.712H52.312L52.416 139.552L58.884 139.388L58.384 141.712Z" fill="#407BFF"/>
<path opacity="0.8" d="M58.384 141.712H52.312L52.416 139.552L58.884 139.388L58.384 141.712Z" fill="white"/>
<path opacity="0.4" d="M67.824 86.004C67.184 91.336 66.444 97.26 65.732 102.36C64.668 96.944 62.268 83.56 66.04 81.208C66.948 82.408 67.512 84.084 67.824 86.004Z" fill="black"/>
<path d="M73.172 70.7397C73.172 70.7397 75.336 95.9077 75.172 106.124C75.012 116.752 72.332 141.636 72.332 141.636H67.816C67.816 141.636 67.32 117.372 66.852 106.936C66.34 95.5557 63.208 70.7397 63.208 70.7397H73.172Z" fill="#263238"/>
<path d="M73.028 141.712H67.068L66.96 139.552L73.528 139.388L73.028 141.712Z" fill="#407BFF"/>
<path opacity="0.8" d="M73.028 141.712H67.068L66.96 139.552L73.528 139.388L73.028 141.712Z" fill="white"/>
<path d="M59.3561 69.9438L58.7481 71.1438C58.7041 71.2398 58.8161 71.3358 58.9721 71.3358H73.2441C73.3641 71.3358 73.4681 71.2758 73.4721 71.1998L73.5881 69.9998C73.5881 69.9158 73.4881 69.8438 73.3561 69.8438H59.5761C59.5339 69.8399 59.4914 69.8471 59.4528 69.8646C59.4142 69.8822 59.3809 69.9095 59.3561 69.9438Z" fill="#407BFF"/>
<path opacity="0.5" d="M59.3561 69.9438L58.7481 71.1438C58.7041 71.2398 58.8161 71.3358 58.9721 71.3358H73.2441C73.3641 71.3358 73.4681 71.2758 73.4721 71.1998L73.5881 69.9998C73.5881 69.9158 73.4881 69.8438 73.3561 69.8438H59.5761C59.5339 69.8399 59.4914 69.8471 59.4528 69.8646C59.4142 69.8822 59.3809 69.9095 59.3561 69.9438Z" fill="white"/>
<path d="M61.2001 71.476H60.8321C60.7561 71.476 60.7001 71.44 60.7041 71.392L60.8681 69.792C60.8681 69.748 60.9361 69.708 61.0121 69.708H61.3801C61.4521 69.708 61.5081 69.748 61.5041 69.792L61.3401 71.392C61.3521 71.448 61.2881 71.476 61.2001 71.476Z" fill="#263238"/>
<path d="M70.16 71.476H69.792C69.72 71.476 69.664 71.44 69.668 71.392L69.8281 69.792C69.8281 69.748 69.9 69.708 69.972 69.708H70.3401C70.4161 69.708 70.472 69.748 70.468 69.792L70.304 71.392C70.3 71.448 70.236 71.476 70.16 71.476Z" fill="#263238"/>
</svg>
