<svg width="200" height="150" viewBox="0 0 200 150" fill="none" xmlns="http://www.w3.org/2000/svg">
<path d="M200 130.96H0V131.06H200V130.96Z" fill="#EBEBEB"/>
<path d="M179.96 137.396H166.712V137.496H179.96V137.396Z" fill="#EBEBEB"/>
<path d="M132.488 138.484H129.012V138.584H132.488V138.484Z" fill="#EBEBEB"/>
<path d="M166.312 133.684H158.636V133.784H166.312V133.684Z" fill="#EBEBEB"/>
<path d="M38.2599 134.356H20.9839V134.456H38.2599V134.356Z" fill="#EBEBEB"/>
<path d="M44.356 134.356H41.824V134.456H44.356V134.356Z" fill="#EBEBEB"/>
<path d="M90.0599 136.044H52.5879V136.144H90.0599V136.044Z" fill="#EBEBEB"/>
<path d="M94.7999 113.12H17.5639C16.9589 113.119 16.379 112.878 15.9515 112.45C15.524 112.021 15.2839 111.441 15.2839 110.836V2.264C15.2892 1.66241 15.5316 1.08719 15.9585 0.663287C16.3854 0.239383 16.9623 0.00103056 17.5639 0H94.7999C95.4057 0 95.9866 0.240635 96.415 0.668968C96.8433 1.0973 97.0839 1.67825 97.0839 2.284V110.836C97.0839 111.442 96.8433 112.023 96.415 112.451C95.9866 112.879 95.4057 113.12 94.7999 113.12ZM17.5639 0.0800003C16.9854 0.0810599 16.4309 0.311626 16.0222 0.721091C15.6135 1.13056 15.3839 1.68546 15.3839 2.264V110.836C15.3839 111.415 15.6135 111.969 16.0222 112.379C16.4309 112.788 16.9854 113.019 17.5639 113.02H94.7999C95.3789 113.019 95.9337 112.789 96.3431 112.379C96.7524 111.97 96.9829 111.415 96.9839 110.836V2.264C96.9829 1.68509 96.7524 1.1302 96.3431 0.720847C95.9337 0.311496 95.3789 0.0810577 94.7999 0.0800003H17.5639Z" fill="#EBEBEB"/>
<path d="M181.324 113.12H104.084C103.479 113.119 102.898 112.878 102.47 112.45C102.042 112.022 101.801 111.441 101.8 110.836V2.264C101.806 1.66205 102.05 1.08683 102.477 0.663037C102.905 0.239243 103.482 0.00101932 104.084 0H181.324C181.925 0.0020818 182.501 0.2409 182.927 0.664691C183.353 1.08848 183.595 1.6631 183.6 2.264V110.836C183.6 111.44 183.361 112.02 182.934 112.448C182.507 112.876 181.928 113.118 181.324 113.12ZM104.084 0.0800003C103.505 0.0810577 102.95 0.311496 102.541 0.720847C102.132 1.1302 101.901 1.68509 101.9 2.264V110.836C101.901 111.415 102.132 111.97 102.541 112.379C102.95 112.789 103.505 113.019 104.084 113.02H181.324C181.903 113.019 182.458 112.789 182.867 112.379C183.277 111.97 183.507 111.415 183.508 110.836V2.264C183.507 1.68509 183.277 1.1302 182.867 0.720847C182.458 0.311496 181.903 0.0810577 181.324 0.0800003H104.084Z" fill="#EBEBEB"/>
<path d="M172.48 6.78809H89.616V67.3161H172.48V6.78809Z" fill="#E6E6E6"/>
<path d="M176.144 6.78809H90.468V67.3161H176.144V6.78809Z" fill="#F0F0F0"/>
<path d="M172.48 67.3198H89.616V70.2238H174.192L172.48 67.3198Z" fill="#E6E6E6"/>
<path d="M179.172 67.3198H93.4961L94.2841 70.2238H179.96L179.172 67.3198Z" fill="#F0F0F0"/>
<path d="M171.016 62.1919V11.9199L95.596 11.9199V62.1919L171.016 62.1919Z" fill="#FAFAFA"/>
<path d="M113.928 62.188L131.1 11.916H147.496L130.324 62.188H113.928Z" fill="white"/>
<path d="M133.848 62.188L151.016 11.916H157.408L140.24 62.188H133.848Z" fill="white"/>
<path d="M171.016 62.1919V11.9199H170.364V62.1919H171.016Z" fill="#E6E6E6"/>
<path d="M104.936 90.7202C104.74 90.7202 104.536 90.7202 104.352 90.7402C100.236 91.0682 96.9041 94.9922 96.6441 99.8202C96.5838 100.885 96.674 101.953 96.9121 102.992C97.8207 107.158 98.2568 111.413 98.2121 115.676V128.136C98.1833 128.537 98.3137 128.933 98.5751 129.239C98.8364 129.544 99.2075 129.735 99.6081 129.768H169.032V90.7202H104.936Z" fill="#F0F0F0"/>
<path d="M177.34 100.46C177.34 94.86 173.3 90.356 168.448 90.744C164.332 91.072 161 94.996 160.74 99.824C160.68 100.889 160.77 101.957 161.008 102.996C161.917 107.162 162.353 111.417 162.308 115.68V128.14C162.279 128.541 162.41 128.937 162.671 129.243C162.932 129.548 163.303 129.738 163.704 129.772H174.356C174.757 129.738 175.128 129.548 175.389 129.243C175.65 128.937 175.781 128.541 175.752 128.14V114.94C175.72 110.942 176.152 106.954 177.04 103.056C177.24 102.205 177.341 101.334 177.34 100.46Z" fill="#FAFAFA"/>
<path d="M157.58 107.692H86.636V129.776H157.58V107.692Z" fill="#F5F5F5"/>
<path d="M68.4001 81.228H142.236C144.04 81.228 145.769 81.9445 147.044 83.2197C148.32 84.4949 149.036 86.2246 149.036 88.028V111.416H61.6001V88.036C61.5991 87.1424 61.7742 86.2573 62.1154 85.4313C62.4567 84.6054 62.9574 83.8548 63.5889 83.2225C64.2205 82.5902 64.9705 82.0886 65.796 81.7464C66.6215 81.4042 67.5064 81.228 68.4001 81.228Z" fill="#E6E6E6"/>
<path d="M73.3719 81.228H144C145.78 81.228 147.487 81.9352 148.746 83.1939C150.005 84.4527 150.712 86.1599 150.712 87.94V111.42H66.6599V87.94C66.6599 86.1599 67.3671 84.4527 68.6258 83.1939C69.8846 81.9352 71.5918 81.228 73.3719 81.228Z" fill="#F5F5F5"/>
<path d="M88.5119 106.896H157.56C157.947 106.896 158.319 107.05 158.592 107.324C158.866 107.597 159.02 107.969 159.02 108.356V110.704C159.02 111.091 158.866 111.463 158.592 111.736C158.319 112.01 157.947 112.164 157.56 112.164H88.5119C88.3963 112.164 88.2854 112.118 88.2036 112.036C88.1219 111.955 88.0759 111.844 88.0759 111.728V107.328C88.077 107.213 88.1234 107.103 88.205 107.022C88.2867 106.941 88.397 106.896 88.5119 106.896Z" fill="#EBEBEB"/>
<path d="M58.208 129.772H169.448V129.864C169.448 130.155 169.333 130.433 169.127 130.639C168.921 130.845 168.643 130.96 168.352 130.96H59.304C59.1601 130.96 59.0176 130.932 58.8846 130.877C58.7516 130.821 58.6308 130.741 58.529 130.639C58.4272 130.537 58.3465 130.416 58.2914 130.283C58.2364 130.15 58.208 130.008 58.208 129.864V129.772Z" fill="#E6E6E6"/>
<path d="M58.6241 90.7202C58.4321 90.7202 58.2241 90.7202 58.0441 90.7402C53.9241 91.0682 50.5961 94.9922 50.3361 99.8202C50.2765 100.885 50.3653 101.952 50.6001 102.992C51.51 107.158 51.9474 111.413 51.9041 115.676V128.136C51.8753 128.537 52.0057 128.933 52.267 129.239C52.5283 129.544 52.8995 129.735 53.3001 129.768H87.0321V90.7202H58.6241Z" fill="#F0F0F0"/>
<path d="M95.344 100.46C95.344 94.86 91.304 90.356 86.452 90.744C82.332 91.072 79.004 94.996 78.744 99.824C78.6844 100.888 78.7733 101.956 79.008 102.996C79.9179 107.162 80.3553 111.416 80.312 115.68V128.14C80.2833 128.541 80.4137 128.937 80.675 129.243C80.9363 129.548 81.3075 129.738 81.708 129.772H92.36C92.7606 129.738 93.1318 129.548 93.3931 129.243C93.6544 128.937 93.7848 128.541 93.756 128.14V114.94C93.7242 110.942 94.155 106.955 95.0401 103.056C95.2415 102.205 95.3435 101.334 95.344 100.46Z" fill="#FAFAFA"/>
<path d="M25.784 69.3239C27.24 66.6319 36.96 70.2999 40.7 74.7639C43.2164 77.6863 44.7549 81.3229 45.1 85.1639C45.348 80.3039 45.612 75.0799 45.852 70.1519C45.12 68.9199 43.452 66.0839 42.252 63.8399C38.292 56.3439 27.812 53.5479 24.46 48.8159C20.06 42.6159 20.744 33.3159 25.092 29.9639C28.872 27.0519 39.324 46.7639 40.5 48.9759C44.556 56.5559 45.492 62.1759 45.972 67.6239C46.196 62.9959 46.404 58.7439 46.556 55.4639C47.056 44.7679 46.984 41.3239 46.916 40.2639C46.456 39.7439 45.916 39.1439 45.6 38.8199C42.928 36.0839 36.8 32.8199 33.904 28.8559C29.672 23.0519 30.908 16.1119 34.344 13.5279C37.944 10.8279 43.5 17.2199 46.248 23.5479C48.996 29.8759 47.204 35.9479 47.732 41.1919C47.848 42.2239 47.764 46.1399 47.564 51.5919C48.944 45.7479 51.164 41.8319 54.976 38.1879C59.688 33.7039 63.868 28.2439 67.444 28.9519C71.02 29.6599 68.56 36.8879 65.336 41.9599C62.464 46.4799 49.556 50.9799 47.448 54.6119C47.148 61.9759 46.688 71.2999 46.216 79.9839C47.524 75.4999 46.868 75.1239 51.416 68.2599C54.12 64.1799 64.388 59.1519 65.372 61.9559C66.356 64.7599 64.172 70.0599 60.172 73.7719C56.944 76.7639 50.244 76.7599 48.572 78.6159C48.172 79.0479 46.868 80.7119 46.116 81.6639C45.536 92.2679 44.948 101.624 44.644 104.816L43.992 104.848C44.084 104.024 44.392 98.6319 44.756 91.4919C43.396 87.6959 32.6 85.4919 29.496 81.5199C26.244 77.3759 24.04 72.5519 25.784 69.3239Z" fill="#E6E6E6"/>
<path d="M53.4161 130.96H35.3801C34.9019 130.96 34.4382 130.795 34.0679 130.493C33.6975 130.19 33.4432 129.769 33.3481 129.3L32.0681 102.4H56.7281L55.4441 129.308C55.3475 129.774 55.0931 130.193 54.7237 130.494C54.3544 130.795 53.8925 130.96 53.4161 130.96Z" fill="#E6E6E6"/>
<path d="M57.2401 104.84H31.5521C31.2542 104.842 30.9664 104.732 30.7446 104.533C30.5228 104.335 30.3829 104.06 30.3521 103.764L29.8241 99.1C29.803 98.9304 29.8184 98.7583 29.8692 98.5952C29.92 98.4321 30.005 98.2817 30.1186 98.1541C30.2322 98.0264 30.3718 97.9245 30.5279 97.8552C30.6841 97.7859 30.8533 97.7507 31.0241 97.752H57.7641C57.935 97.7507 58.1041 97.7859 58.2603 97.8552C58.4164 97.9245 58.556 98.0264 58.6696 98.1541C58.7832 98.2817 58.8682 98.4321 58.919 98.5952C58.9698 98.7583 58.9852 98.9304 58.9641 99.1L58.4401 103.764C58.4093 104.06 58.2694 104.335 58.0476 104.533C57.8258 104.732 57.538 104.842 57.2401 104.84Z" fill="#FAFAFA"/>
<path d="M100 149.024C142.833 149.024 177.556 146.997 177.556 144.496C177.556 141.995 142.833 139.968 100 139.968C57.1671 139.968 22.4441 141.995 22.4441 144.496C22.4441 146.997 57.1671 149.024 100 149.024Z" fill="#F5F5F5"/>
<path d="M68.4399 144.496H69.5399L76.6439 62.0718H75.5479L68.4399 144.496Z" fill="#263238"/>
<path d="M89.4081 144.496H88.3121L81.2041 62.0718H82.3041L89.4081 144.496Z" fill="#263238"/>
<path d="M38.58 98.6718H133.604L125.304 25.4678H30.28L38.58 98.6718Z" fill="#E0E0E0"/>
<path d="M133.72 98.7758H38.4841L30.1641 25.3638H125.4L133.72 98.7758ZM38.6721 98.5678H133.472L125.2 25.5718H30.4001L38.6721 98.5678Z" fill="#407BFF"/>
<path d="M103.332 24.1079H99.908V24.3159H103.332V24.1079Z" fill="#407BFF"/>
<path d="M116.536 24.1079H106.948V24.3159H116.536V24.1079Z" fill="#407BFF"/>
<path d="M39.556 98.6718H134.58L126.284 25.4678H31.26L39.556 98.6718Z" fill="white"/>
<path d="M134.7 98.7758H39.464L31.144 25.3638H126.376L134.7 98.7758ZM39.652 98.5678H134.452L126.192 25.5718H31.392L39.652 98.5678Z" fill="#407BFF"/>
<path d="M83.3559 59.6441L93.2919 42.7161C89.1393 39.9676 84.1892 38.6811 79.2239 39.0601C74.5624 39.4207 70.2176 41.5587 67.0879 45.0321L83.3559 59.6441Z" fill="#407BFF"/>
<path opacity="0.7" d="M83.3559 59.6441L93.2919 42.7161C89.1393 39.9676 84.1892 38.6811 79.2239 39.0601C74.5624 39.4207 70.2176 41.5587 67.0879 45.0321L83.3559 59.6441Z" fill="white"/>
<path d="M83.356 59.6439L97.436 83.9319C100.101 82.6258 102.486 80.8119 104.456 78.5919C113.656 68.1919 111.732 51.0919 100.16 40.6959C98.9337 39.5938 97.623 38.5894 96.24 37.6919L83.356 59.6439Z" fill="#407BFF"/>
<path opacity="0.2" d="M83.356 59.6439L97.436 83.9319C100.101 82.6258 102.486 80.8119 104.456 78.5919C113.656 68.1919 111.732 51.0919 100.16 40.6959C98.9337 39.5938 97.623 38.5894 96.24 37.6919L83.356 59.6439Z" fill="black"/>
<path d="M83.3561 59.6438L53.1201 51.7798C51.5201 62.2518 55.7761 73.4598 64.3201 81.1278C74.3401 90.1358 88.4001 92.5638 99.3161 87.1998L83.3561 59.6438Z" fill="#263238"/>
<path d="M107.272 34.2761H121.34L121.016 31.4121H106.948L107.272 34.2761Z" fill="#E0E0E0"/>
<path d="M112.836 38.7317H121.844L121.52 35.8677H112.512L112.836 38.7317Z" fill="#E0E0E0"/>
<path d="M116.396 89.8638H127.64L127.968 92.7278H116.72L116.396 89.8638Z" fill="#E0E0E0"/>
<path d="M118.124 85.4077H127.136L127.46 88.2717H118.452L118.124 85.4077Z" fill="#E0E0E0"/>
<path d="M110.112 85.4077H116.64L116.964 88.2717H110.44L110.112 85.4077Z" fill="#E0E0E0"/>
<path d="M52.4479 35.8677H38.3799L38.7039 38.7317H52.7719L52.4479 35.8677Z" fill="#E0E0E0"/>
<path d="M46.884 31.4121H37.876L38.2 34.2761H47.212L46.884 31.4121Z" fill="#E0E0E0"/>
<path d="M55.5681 88.2717H44.3201L43.9961 85.4077H55.2401L55.5681 88.2717Z" fill="#E0E0E0"/>
<path d="M53.836 92.7278H44.824L44.5 89.8638H53.512L53.836 92.7278Z" fill="#E0E0E0"/>
<path d="M61.8481 92.7278H55.3201L54.9961 89.8638H61.5241L61.8481 92.7278Z" fill="#E0E0E0"/>
<path d="M164.116 44.1001C164.256 44.3241 164.356 44.5001 164.468 44.6881C164.58 44.8761 164.68 45.0601 164.78 45.2481C164.98 45.6201 165.18 45.9961 165.352 46.3721C165.724 47.1281 166.048 47.8961 166.36 48.6681C166.962 50.2194 167.463 51.8081 167.86 53.4241C167.964 53.8241 168.044 54.2241 168.132 54.6241L168.196 54.9281C168.196 54.9681 168.22 55.0481 168.232 55.1241L168.264 55.3481C168.3 55.6577 168.3 55.9705 168.264 56.2801C168.205 56.9022 168.008 57.5033 167.688 58.0401C167.402 58.5136 167.04 58.9366 166.616 59.2921C165.884 59.8915 165.051 60.3548 164.156 60.6601C163.745 60.8103 163.326 60.9345 162.9 61.0321C162.473 61.1347 162.04 61.2109 161.604 61.2601L161.204 59.5281C162.516 58.9441 163.912 58.1441 164.66 57.2561C164.826 57.068 164.961 56.8546 165.06 56.6241C165.126 56.4592 165.152 56.281 165.136 56.1041C165.129 56.0161 165.112 55.929 165.088 55.8441L164.96 55.4041C164.852 55.0361 164.752 54.6681 164.628 54.3041C164.172 52.8441 163.64 51.4121 163.028 50.0121C162.732 49.3081 162.412 48.6201 162.088 47.9361C161.92 47.5961 161.752 47.2601 161.576 46.9321L161.312 46.4441L161.064 45.9961L164.116 44.1001Z" fill="#B55B52"/>
<path d="M161.888 59.2881L159.032 59.7121L160.452 62.0521C160.452 62.0521 162.48 61.7201 163.112 60.4001L161.888 59.2881Z" fill="#B55B52"/>
<path d="M157.06 60.7159L158.004 62.8439L160.452 62.0519L159.032 59.7119L157.06 60.7159Z" fill="#B55B52"/>
<path d="M156.4 141.132C156.713 141.124 157.024 141.082 157.328 141.008C157.344 141.005 157.359 140.996 157.37 140.984C157.382 140.972 157.389 140.957 157.392 140.94C157.395 140.924 157.393 140.908 157.387 140.893C157.381 140.878 157.37 140.865 157.356 140.856C157.24 140.776 156.18 140.088 155.756 140.272C155.709 140.294 155.669 140.327 155.639 140.368C155.609 140.409 155.59 140.458 155.584 140.508C155.566 140.587 155.569 140.669 155.592 140.746C155.615 140.823 155.658 140.893 155.716 140.948C155.914 141.091 156.157 141.157 156.4 141.132ZM157.096 140.888C156.484 141.008 156.024 140.988 155.848 140.828C155.81 140.79 155.783 140.743 155.769 140.691C155.755 140.639 155.755 140.584 155.768 140.532C155.767 140.51 155.774 140.487 155.786 140.468C155.798 140.449 155.815 140.434 155.836 140.424C156.052 140.324 156.664 140.624 157.096 140.888Z" fill="#407BFF"/>
<path d="M157.308 141.008C157.322 141.012 157.338 141.012 157.352 141.008C157.364 141 157.375 140.99 157.383 140.977C157.39 140.965 157.395 140.951 157.396 140.936C157.396 140.896 157.396 139.884 157.028 139.544C156.981 139.501 156.925 139.468 156.864 139.45C156.803 139.431 156.739 139.426 156.676 139.436C156.609 139.437 156.545 139.461 156.494 139.503C156.442 139.545 156.406 139.603 156.392 139.668C156.308 140.068 156.936 140.82 157.268 141.008C157.281 141.012 157.295 141.012 157.308 141.008ZM156.732 139.6C156.8 139.6 156.866 139.626 156.916 139.672C157.132 140 157.24 140.388 157.224 140.78C156.896 140.512 156.504 139.944 156.556 139.704C156.556 139.664 156.588 139.616 156.696 139.604L156.732 139.6Z" fill="#407BFF"/>
<path d="M153.496 138.8C153.503 138.787 153.507 138.773 153.507 138.758C153.507 138.744 153.503 138.729 153.496 138.716C153.487 138.701 153.474 138.689 153.458 138.682C153.443 138.675 153.425 138.673 153.408 138.676C153.236 138.704 151.744 138.976 151.476 139.412C151.475 139.422 151.475 139.431 151.476 139.44C151.453 139.481 151.441 139.526 151.441 139.572C151.441 139.619 151.453 139.664 151.476 139.704C151.51 139.769 151.561 139.824 151.622 139.864C151.684 139.904 151.755 139.927 151.828 139.932C152.336 139.976 153.084 139.248 153.488 138.812C153.492 138.82 153.496 138.8 153.496 138.8ZM151.624 139.492C151.776 139.252 152.58 139.016 153.192 138.888C152.628 139.464 152.136 139.792 151.852 139.768C151.803 139.764 151.756 139.748 151.715 139.721C151.675 139.693 151.642 139.656 151.62 139.612C151.611 139.596 151.607 139.578 151.607 139.56C151.607 139.542 151.611 139.524 151.62 139.508C151.62 139.508 151.62 139.508 151.624 139.504V139.492Z" fill="#407BFF"/>
<path d="M153.496 138.8C153.504 138.787 153.508 138.773 153.508 138.758C153.508 138.743 153.504 138.729 153.496 138.716C153.472 138.688 152.868 137.984 152.296 137.96C152.212 137.955 152.129 137.968 152.05 137.996C151.972 138.025 151.9 138.07 151.84 138.128C151.66 138.284 151.676 138.42 151.716 138.504C151.888 138.86 152.996 138.96 153.448 138.856C153.47 138.844 153.487 138.824 153.496 138.8ZM151.872 138.308C151.892 138.281 151.915 138.255 151.94 138.232C151.985 138.189 152.038 138.156 152.097 138.136C152.156 138.115 152.218 138.107 152.28 138.112C152.661 138.197 153.005 138.404 153.26 138.7C152.764 138.756 151.964 138.624 151.86 138.408C151.855 138.393 151.854 138.378 151.856 138.363C151.858 138.347 151.864 138.333 151.872 138.32V138.308Z" fill="#407BFF"/>
<path d="M156.524 31.896C156.124 33.984 155.232 38.544 156.7 39.896C156.7 39.896 156.144 42.02 152.268 42.096C148.008 42.18 150.22 40.024 150.22 40.024C152.54 39.424 152.472 37.7 152.056 36.092L156.524 31.896Z" fill="#B55B52"/>
<path d="M149.172 27.2762C149.197 27.2816 149.223 27.2816 149.248 27.2762C149.286 27.255 149.315 27.22 149.328 27.1784C149.342 27.1368 149.339 27.0917 149.32 27.0522C149.206 26.8172 149.038 26.6128 148.829 26.4562C148.621 26.2996 148.377 26.1953 148.12 26.1522C148.098 26.15 148.076 26.1522 148.054 26.1586C148.033 26.1651 148.013 26.1757 147.996 26.1898C147.979 26.204 147.965 26.2214 147.955 26.241C147.944 26.2606 147.938 26.2821 147.936 26.3042C147.933 26.3255 147.935 26.3472 147.94 26.3679C147.946 26.3887 147.956 26.408 147.97 26.4248C147.983 26.4416 148 26.4555 148.019 26.4658C148.038 26.476 148.058 26.4822 148.08 26.4842C148.286 26.5196 148.48 26.6038 148.646 26.7298C148.812 26.8558 148.946 27.0198 149.036 27.2082C149.051 27.2297 149.072 27.2471 149.096 27.2589C149.119 27.2708 149.145 27.2767 149.172 27.2762Z" fill="#263238"/>
<path d="M148.132 28.9683C147.811 29.5843 147.407 30.1536 146.932 30.6603C147.064 30.7787 147.221 30.8663 147.391 30.9168C147.561 30.9673 147.74 30.9794 147.916 30.9523L148.132 28.9683Z" fill="#A02724"/>
<path d="M147.576 30.5043C146.828 30.5043 146.216 29.3043 146.216 27.7883C146.216 26.2723 146.828 25.0723 147.576 25.0723C148.324 25.0723 148.94 26.2723 148.94 27.7883C148.94 29.3043 148.328 30.5043 147.576 30.5043ZM147.576 25.1723C146.884 25.1723 146.316 26.3483 146.316 27.7883C146.316 29.2283 146.884 30.4043 147.576 30.4043C148.268 30.4043 148.84 29.2323 148.84 27.7883C148.84 26.3443 148.272 25.1723 147.576 25.1723Z" fill="#407BFF"/>
<path d="M148.444 28.5122C148.408 28.7922 148.232 29.0042 148.044 28.9842C147.856 28.9642 147.74 28.7242 147.772 28.4402C147.804 28.1562 147.98 27.9482 148.172 27.9642C148.364 27.9802 148.476 28.2282 148.444 28.5122Z" fill="#263238"/>
<path d="M148.248 27.9999L147.596 27.7319C147.596 27.7319 147.88 28.2879 148.248 27.9999Z" fill="#263238"/>
<path d="M156.808 137.5L153.552 139.028L149.996 131.928L153.252 130.4L156.808 137.5Z" fill="#B55B52"/>
<path d="M161.396 140.924H157.884L158.272 132.792H161.784L161.396 140.924Z" fill="#B55B52"/>
<path d="M157.6 140.52H161.544C161.612 140.519 161.677 140.542 161.728 140.587C161.779 140.631 161.812 140.693 161.82 140.76L162.22 143.88C162.227 143.959 162.217 144.039 162.191 144.114C162.165 144.19 162.124 144.259 162.071 144.317C162.017 144.376 161.952 144.423 161.879 144.455C161.806 144.487 161.727 144.504 161.648 144.504C160.272 144.48 159.608 144.4 157.876 144.4C156.808 144.4 155.248 144.512 153.772 144.512C152.296 144.512 152.24 143.052 152.856 142.912C155.616 142.32 156.056 141.504 157 140.728C157.169 140.591 157.382 140.517 157.6 140.52Z" fill="#263238"/>
<path d="M153.384 138.304L156.624 135.904C156.676 135.861 156.742 135.839 156.81 135.843C156.877 135.846 156.941 135.875 156.988 135.924L159.128 138.14C159.179 138.201 159.217 138.272 159.239 138.348C159.262 138.425 159.268 138.505 159.258 138.584C159.248 138.663 159.221 138.739 159.18 138.807C159.139 138.875 159.085 138.934 159.02 138.98C157.876 139.8 157.288 140.14 155.864 141.196C154.988 141.848 153.24 143.284 152.028 144.18C150.816 145.076 149.928 143.968 150.356 143.488C152.28 141.336 152.708 140.024 153.028 138.84C153.082 138.626 153.208 138.437 153.384 138.304Z" fill="#263238"/>
<path opacity="0.2" d="M150 131.932L151.9 135.732L155.088 134.06L153.256 130.4L150 131.932Z" fill="black"/>
<path opacity="0.2" d="M161.784 132.796H158.272L158.072 136.988H161.584L161.784 132.796Z" fill="black"/>
<path d="M162.764 40.584C164.228 40.872 165.816 46.084 165.816 46.084L161.716 50.548C161.716 50.548 158.26 45.692 158.948 43.868C159.664 41.968 161.04 40.24 162.764 40.584Z" fill="#263238"/>
<path opacity="0.4" d="M160.472 43.964C159.728 43.304 159.232 43.516 158.892 44.06C158.568 45.624 160.576 48.86 161.384 50.06C161.744 48.584 162.148 45.464 160.472 43.964Z" fill="black"/>
<path d="M144 41.7923C143.732 43.3283 143.676 48.0043 146.076 62.1923L160.348 61.9123C160.076 56.1163 160.048 52.5403 162.748 40.5883C160.746 40.2144 158.719 39.9871 156.684 39.9083C154.524 39.7958 152.358 39.8386 150.204 40.0363C148.128 40.2643 145.852 40.7163 144.824 40.9323C144.616 40.9761 144.426 41.0816 144.279 41.235C144.132 41.3885 144.035 41.5827 144 41.7923Z" fill="#263238"/>
<path d="M158.02 28.528C157.4 31.964 157.22 33.428 155.256 35.02C152.316 37.42 148.236 35.964 147.816 32.428C147.44 29.228 148.52 24.16 152.064 23.136C152.838 22.9021 153.659 22.8723 154.448 23.0497C155.237 23.2271 155.967 23.6055 156.566 24.1482C157.166 24.6909 157.615 25.3794 157.869 26.1468C158.124 26.9143 158.176 27.7345 158.02 28.528Z" fill="#B55B52"/>
<path d="M148.4 24.2321C148.4 24.1241 148.324 24.0081 148.332 23.9001C148.34 23.7921 148.372 23.6801 148.384 23.5721C148.396 23.4641 148.384 23.3481 148.384 23.2361C148.384 23.1241 148.492 23.0321 148.516 22.9241C148.54 22.8161 148.464 22.6841 148.496 22.5761C148.528 22.4681 148.58 22.3681 148.616 22.2641C148.652 22.1601 148.752 22.0801 148.792 21.9761C148.832 21.8721 148.88 21.7721 148.928 21.6721C148.976 21.5721 148.948 21.4361 149 21.3361C149.052 21.2361 149.212 21.2041 149.268 21.1081C149.324 21.0121 149.268 20.8361 149.316 20.7441C149.364 20.6521 149.496 20.5961 149.56 20.5081C149.624 20.4201 149.668 20.3041 149.736 20.2201C149.804 20.1361 149.904 20.0721 149.98 19.9881C150.056 19.9041 150.188 19.8801 150.268 19.8041C150.348 19.7281 150.34 19.5601 150.424 19.4841C150.508 19.4081 150.612 19.3601 150.696 19.2881C150.78 19.2161 150.9 19.1881 150.988 19.1201C151.076 19.0521 151.116 18.9201 151.208 18.8601C151.3 18.8001 151.488 18.8841 151.584 18.8241C151.68 18.7641 151.764 18.7041 151.86 18.6481C151.956 18.5921 152.044 18.5321 152.144 18.4841C152.244 18.4361 152.276 18.2521 152.38 18.2081C152.484 18.1641 152.616 18.2081 152.72 18.1561C152.824 18.1041 152.892 17.9841 152.996 17.9481C153.1 17.9121 153.256 18.0281 153.36 17.9961C153.464 17.9641 153.536 17.8041 153.644 17.7761C153.752 17.7481 153.86 17.7121 153.968 17.6881C154.076 17.6641 154.196 17.6881 154.308 17.6881C154.42 17.6881 154.528 17.6881 154.64 17.6561C154.752 17.6241 154.856 17.6561 154.964 17.6241C155.072 17.5921 155.184 17.6241 155.292 17.5921C155.4 17.5601 155.512 17.5921 155.62 17.5681C155.728 17.5441 155.836 17.5361 155.948 17.5281C156.06 17.5201 156.164 17.4881 156.276 17.4841C156.388 17.4801 156.5 17.5721 156.608 17.5681C156.716 17.5641 156.828 17.4961 156.936 17.4961C157.044 17.4961 157.16 17.4321 157.268 17.4321C157.376 17.4321 157.484 17.5441 157.596 17.5481C157.708 17.5521 157.808 17.6241 157.916 17.6321C158.024 17.6401 158.148 17.5281 158.256 17.5401C158.364 17.5521 158.464 17.6561 158.572 17.6721C158.68 17.6881 158.8 17.6201 158.908 17.6361C159.016 17.6521 159.112 17.7401 159.22 17.7601C159.328 17.7801 159.456 17.7081 159.56 17.7321C159.664 17.7561 159.772 17.8001 159.876 17.8281C159.98 17.8561 160.092 17.8761 160.196 17.9081C160.3 17.9401 160.4 17.9921 160.504 18.0281C160.608 18.0641 160.688 18.1681 160.788 18.2081C160.888 18.2481 160.984 18.3041 161.084 18.3481C161.184 18.3921 161.328 18.3481 161.424 18.3841C161.52 18.4201 161.632 18.4681 161.728 18.5201C161.824 18.5721 161.9 18.6601 161.996 18.7161C162.092 18.7721 162.128 18.9161 162.22 18.9761C162.312 19.0361 162.432 19.0441 162.52 19.1081C162.608 19.1721 162.768 19.1441 162.852 19.2121C162.936 19.2801 162.928 19.4681 163.012 19.5361C163.096 19.6041 163.244 19.6001 163.328 19.6761C163.412 19.7521 163.48 19.8321 163.56 19.9081C163.64 19.9841 163.636 20.1361 163.708 20.2161C163.78 20.2961 163.88 20.3521 163.952 20.4361C164.024 20.5201 164.124 20.5761 164.192 20.6601C164.26 20.7441 164.364 20.8041 164.428 20.8921C164.492 20.9801 164.448 21.1441 164.508 21.2321C164.568 21.3201 164.736 21.3481 164.792 21.4441C164.848 21.5401 164.82 21.6761 164.872 21.7721C164.924 21.8681 164.984 21.9601 165.032 22.0561C165.08 22.1521 165.216 22.2121 165.26 22.3121C165.304 22.4121 165.384 22.5001 165.424 22.6001C165.464 22.7001 165.452 22.8241 165.492 22.9281C165.532 23.0321 165.572 23.1321 165.604 23.2361C165.636 23.3401 165.652 23.4521 165.684 23.5561C165.716 23.6601 165.728 23.7721 165.756 23.8761C165.784 23.9801 165.72 24.1081 165.756 24.2161C165.792 24.3241 165.984 24.3921 166 24.5001C166.016 24.6081 165.86 24.7441 165.876 24.8561C165.892 24.9681 165.948 25.0641 165.96 25.1721C165.972 25.2801 165.936 25.3921 165.96 25.5001C165.984 25.6081 165.96 25.7161 165.96 25.8281C165.96 25.9401 166.016 26.0441 166.02 26.1561C166.024 26.2681 166.172 26.3801 166.172 26.4921C166.172 26.6041 166.172 26.7201 166.152 26.8321C166.132 26.9441 166.128 27.0561 166.116 27.1681C166.104 27.2801 165.996 27.3801 165.98 27.4881C165.964 27.5961 165.98 27.7121 165.948 27.8241C165.916 27.9361 165.912 28.0441 165.892 28.1521C165.872 28.2601 165.892 28.3841 165.892 28.4921C165.892 28.6001 165.792 28.6961 165.764 28.8041C165.736 28.9121 165.624 28.9961 165.592 29.1041C165.56 29.2121 165.592 29.3361 165.56 29.4441C165.528 29.5521 165.444 29.6361 165.404 29.7401C165.364 29.8441 165.436 29.9921 165.404 30.0961C165.372 30.2001 165.32 30.3041 165.272 30.4041C165.224 30.5041 165.12 30.5841 165.072 30.6841C165.024 30.7841 165.032 30.9161 164.98 31.0121C164.928 31.1081 164.792 31.1641 164.736 31.2601C164.68 31.3561 164.556 31.4121 164.5 31.5081C164.444 31.6041 164.436 31.7281 164.372 31.8201C164.308 31.9121 164.208 31.9761 164.144 32.0681C164.08 32.1601 164.088 32.3041 164.02 32.3921C163.952 32.4801 163.948 32.6201 163.876 32.7041C163.804 32.7881 163.672 32.8281 163.6 32.9121C163.528 32.9961 163.504 33.1281 163.428 33.2121C163.352 33.2961 163.228 33.3321 163.152 33.4081C163.076 33.4841 163.012 33.5881 162.932 33.6641C162.852 33.7401 162.728 33.7761 162.644 33.8481C162.56 33.9201 162.444 33.9601 162.36 34.0281C162.276 34.0961 162.248 34.2481 162.16 34.3161C162.072 34.3841 161.936 34.3921 161.844 34.4561C161.752 34.5201 161.62 34.5161 161.528 34.5801C161.436 34.6441 161.408 34.8081 161.312 34.8641C161.216 34.9201 161.076 34.9001 160.976 34.9521C160.876 35.0041 160.796 35.0841 160.696 35.1361C160.596 35.1881 160.54 35.3201 160.436 35.3681C160.332 35.4161 160.22 35.4321 160.116 35.4761C160.012 35.5201 159.876 35.4761 159.768 35.5081L159.452 35.6081C159.348 35.6441 159.284 35.8161 159.176 35.8441C159.068 35.8721 158.912 35.7241 158.804 35.7481C158.696 35.7721 158.608 35.8881 158.5 35.9121C158.392 35.9361 158.28 35.9521 158.172 35.9681C158.064 35.9841 157.944 35.9281 157.832 35.9441C157.72 35.9601 157.616 35.9761 157.504 35.9841C157.392 35.9921 157.292 36.1801 157.18 36.1841C157.068 36.1881 156.96 36.0441 156.848 36.0441V36.0841C156.704 36.0841 156.56 36.0601 156.412 36.0601C156.264 36.0601 156.192 35.9921 156.08 35.9881C155.968 35.9841 155.844 36.1561 155.732 36.1441C155.62 36.1321 155.524 36.0081 155.412 35.9921C155.3 35.9761 155.2 35.9241 155.092 35.9041C154.984 35.8841 154.844 35.9681 154.736 35.9401C154.628 35.9121 154.524 35.8681 154.416 35.8361C154.308 35.8041 154.228 35.6921 154.124 35.6521C154.02 35.6121 153.896 35.6161 153.796 35.5721C153.696 35.5281 153.56 35.5441 153.46 35.4921C153.36 35.4401 153.308 35.3001 153.208 35.2441C153.108 35.1881 152.972 35.2081 152.876 35.1481C152.78 35.0881 152.776 34.8961 152.684 34.8321C152.592 34.7681 152.456 34.7681 152.372 34.6961C152.288 34.6241 152.24 34.5081 152.156 34.4321C152.072 34.3561 152.004 34.2801 151.924 34.2001C151.844 34.1201 151.628 34.1721 151.552 34.0881C151.476 34.0041 151.524 33.8201 151.452 33.7321C151.38 33.6441 151.216 33.6321 151.148 33.5401C151.08 33.4481 151.008 33.3641 150.944 33.2681C150.88 33.1721 150.984 32.9881 150.944 32.8881C150.904 32.7881 150.788 32.7241 150.74 32.6201C150.692 32.5161 150.584 32.4481 150.54 32.3441C150.496 32.2401 150.516 32.1161 150.48 32.0081C150.444 31.9001 150.44 31.7921 150.408 31.6841C150.376 31.5761 150.18 31.5121 150.156 31.4001C150.132 31.2881 150.2 31.1601 150.18 31.0521C150.16 30.9441 150.076 30.8361 150.064 30.7241C150.052 30.6121 150.212 30.4921 150.204 30.3761C150.196 30.2601 150.184 30.1601 150.184 30.0481C150.184 29.9361 150.032 29.8401 150.024 29.7441C150.016 29.6481 150.024 29.5401 150.004 29.4441C149.984 29.3481 150.028 29.2361 150.028 29.1361C150.02 29.0336 150.02 28.9306 150.028 28.8281C150.028 28.7361 150.092 28.6441 150.124 28.5361C150.036 28.4601 149.92 28.4161 149.84 28.3401C149.76 28.2641 149.764 28.0921 149.688 28.0081C149.612 27.9241 149.544 27.8361 149.476 27.7441C149.408 27.6521 149.264 27.6161 149.204 27.5201C149.144 27.4241 149.176 27.2721 149.12 27.1721C149.064 27.0721 149.02 26.9761 148.972 26.8721C148.924 26.7681 148.864 26.6761 148.824 26.5681C148.784 26.4601 148.756 26.3561 148.724 26.2441C148.692 26.1321 148.632 26.0361 148.608 25.9241C148.584 25.8121 148.536 25.7121 148.516 25.5961C148.496 25.4801 148.36 25.3881 148.344 25.2721C148.328 25.1561 148.344 25.0401 148.344 24.9241C148.344 24.8081 148.492 24.6881 148.488 24.5721C148.484 24.4561 148.4 24.3481 148.4 24.2321Z" fill="#263238"/>
<path d="M149.568 29.0121C149.208 29.8121 149.704 29.9681 149.644 30.5401C149.512 31.7961 150.092 31.7401 150.54 31.1121C150.94 30.5401 151.34 29.4081 150.984 28.7441C150.628 28.0801 149.888 28.2841 149.568 29.0121Z" fill="#B55B52"/>
<path d="M149.852 62.1122C149.852 62.1122 152.032 86.1522 154.224 99.6842C155.996 110.612 157.496 136.176 157.496 136.176H162.296C162.296 136.176 163.86 111.224 162.928 100.4C160.576 73.0082 165.46 70.6762 160.368 61.9082L149.852 62.1122Z" fill="#407BFF"/>
<path opacity="0.4" d="M154.724 70.1523C153.476 71.9843 151.812 74.0963 151.272 76.3323C151.704 80.3883 152.208 84.8723 152.752 89.1843C154.068 85.5563 156.324 78.3083 154.724 70.1523Z" fill="black"/>
<path d="M146.084 62.1879C146.084 62.1879 141.64 90.0759 140.308 100.712C138.924 111.78 150 134.332 150 134.332L154.756 131.712C154.756 131.712 148.4 108.34 148.836 102.704C150.392 90.8599 158.724 61.9399 158.724 61.9399L146.084 62.1879Z" fill="#407BFF"/>
<path d="M154.032 71.8962H151.144C151.12 71.896 151.098 71.8875 151.08 71.8722L149.704 70.8002C149.691 70.7891 149.68 70.7749 149.673 70.759C149.666 70.743 149.663 70.7256 149.664 70.7082L150.004 65.4202C150.006 65.3941 150.018 65.3696 150.037 65.3518C150.056 65.334 150.082 65.3242 150.108 65.3242H155.88C155.895 65.324 155.909 65.3267 155.923 65.3322C155.937 65.3377 155.949 65.3459 155.96 65.3562C155.977 65.3796 155.987 65.4074 155.988 65.4362L155.648 70.7242C155.644 70.7555 155.628 70.7841 155.604 70.8042L154.092 71.8642C154.075 71.8805 154.055 71.8916 154.032 71.8962ZM151.18 71.6842H153.98L155.424 70.6722L155.752 65.5442H150.192L149.86 70.6802L151.18 71.6842Z" fill="white"/>
<path d="M150.004 135.512L155.576 132.68L154.804 130.5L148.84 133.524L150.004 135.512Z" fill="#263238"/>
<path d="M156.84 136.272H162.94L163.288 134.132L156.84 133.912V136.272Z" fill="#263238"/>
<path d="M160.568 61.0683L161.216 62.3323C161.268 62.4283 161.152 62.5323 160.988 62.5363L146.016 62.8283C145.888 62.8283 145.78 62.7683 145.772 62.6883L145.636 61.4163C145.636 61.3283 145.74 61.2523 145.88 61.2483L160.332 60.9643C160.377 60.9596 160.422 60.9667 160.464 60.985C160.505 61.0032 160.541 61.0319 160.568 61.0683Z" fill="#E0E0E0"/>
<path d="M158.636 62.7202H159.036C159.116 62.7202 159.172 62.6762 159.168 62.6282L158.976 60.9762C158.976 60.9282 158.904 60.8882 158.828 60.8882H158.428C158.352 60.8882 158.292 60.9322 158.296 60.9802L158.488 62.6322C158.488 62.6842 158.556 62.7202 158.636 62.7202Z" fill="#263238"/>
<path d="M149.252 62.9043H149.652C149.728 62.9043 149.788 62.8603 149.78 62.8123L149.588 61.1603C149.588 61.1123 149.516 61.0723 149.44 61.0723H149.04C148.964 61.0723 148.904 61.1163 148.912 61.1643L149.1 62.8163C149.108 62.8683 149.176 62.9043 149.252 62.9043Z" fill="#263238"/>
<path opacity="0.4" d="M144.204 48.9561C144.272 49.6201 144.352 50.3321 144.444 51.1081C146.196 50.0801 146.212 47.1401 146.632 45.7881C145.844 45.9081 143.972 46.2961 144.204 48.9561Z" fill="black"/>
<path d="M145.78 45.2C145.218 47.0129 144.542 48.7885 143.756 50.5159C142.976 52.3023 142.017 54.0055 140.896 55.6C140.523 56.1105 140.065 56.5541 139.544 56.912C139.078 57.2313 138.579 57.4995 138.056 57.712C137.104 58.0946 136.111 58.3632 135.096 58.512C133.185 58.7942 131.246 58.8252 129.328 58.604L129.372 56.828C131.113 56.6526 132.836 56.3328 134.524 55.8719C135.305 55.6553 136.063 55.359 136.784 54.988C137.362 54.7118 137.857 54.2883 138.22 53.7599C138.656 53.0599 139.048 52.296 139.42 51.52C139.792 50.744 140.144 49.92 140.484 49.12C141.148 47.492 141.78 45.7879 142.34 44.1479L145.78 45.2Z" fill="#B55B52"/>
<path d="M144.096 41.2243C142.524 42.1083 140.444 46.9963 140.444 46.9963L145.644 50.3483C145.644 50.3483 148.664 45.7363 148.292 43.0523C148 41.0563 145.732 40.3003 144.096 41.2243Z" fill="#263238"/>
<path d="M130.024 58.4601L127.584 59.7881L126.812 56.9881C126.812 56.9881 128.924 56.2681 130.152 56.9681L130.024 58.4601Z" fill="#B55B52"/>
<path d="M132.664 70.9721L120.964 47.6001C119.137 48.5287 117.457 49.72 115.976 51.1361C114.469 52.576 113.174 54.2216 112.128 56.0241L132.664 70.9721Z" fill="#407BFF"/>
<path d="M125.968 60.312L124.744 58.088L126.812 57L127.584 59.788L125.968 60.312Z" fill="#B55B52"/>
</svg>
